<svg xmlns="http://www.w3.org/2000/svg" viewBox="0 0 165.52 105.97"><title>Apple PAy</title><path d="M37.45,38.63a8.56,8.56,0,0,1,2.15-6.26,9.1,9.1,0,0,1,6-3.12,9.15,9.15,0,0,1-2.1,6.52A7.55,7.55,0,0,1,37.45,38.63Z" style="fill:#231f20"/><path d="M54.08,59.13a22.42,22.42,0,0,1-2.79,5.75c-1.7,2.5-3.45,5-6.25,5s-3.6-1.6-6.7-1.6-4.1,1.55-6.65,1.65S27,67.28,25.25,64.78c-3.5-5.05-6.15-14.25-2.55-20.45a9.88,9.88,0,0,1,8.4-5.1c2.64,0,5.09,1.75,6.69,1.75s4.45-2.1,7.8-1.9A9.55,9.55,0,0,1,53,43.13a9.25,9.25,0,0,0-4.39,7.75A9.08,9.08,0,0,0,54.08,59.13Z" style="fill:#231f20"/><path d="M79,32.11H64.91V69.62h5.82V56.81h8.06c7.36,0,12.53-5,12.53-12.37S86.25,32.11,79,32.11ZM77.41,51.92H70.73V37h6.71c5,0,7.93,2.7,7.93,7.43S82.48,51.92,77.41,51.92Z" style="fill:#231f20"/><path d="M116,51V69.62h-5.38V65.13h-.13a9.61,9.61,0,0,1-8.58,4.78c-5.41,0-9.17-3.22-9.17-8.06s3.66-7.56,10.42-8l7.25-.44V51.35c0-3-2-4.7-5.56-4.7-2.94,0-5.07,1.5-5.51,3.82H94.12c.15-4.86,4.73-8.4,10.91-8.4C111.69,42.07,116,45.55,116,51Z" style="fill:#231f20"/><path d="M138.21,42.41h5.93L133.92,71.08c-2.34,6.58-5,8.73-10.68,8.73a16.6,16.6,0,0,1-2.26-.15v-4.5c.36,0,1.24.1,1.71.1,2.57,0,4-1.09,4.91-3.89l.52-1.67-9.85-27.29h6.08l6.87,22.14h.13Z" style="fill:#231f20"/><path d="M165.5,11.7a20.31,20.31,0,0,0-.28-3.11,10.39,10.39,0,0,0-1-3,10.1,10.1,0,0,0-1.83-2.52,9.86,9.86,0,0,0-2.52-1.83,10.73,10.73,0,0,0-3-1A21.76,21.76,0,0,0,153.83,0L152.4,0H13.13L11.7,0A21.78,21.78,0,0,0,8.58.3a10.73,10.73,0,0,0-3,1A9.86,9.86,0,0,0,3.1,3.11,10.36,10.36,0,0,0,1.27,5.63a10.71,10.71,0,0,0-1,3A20.31,20.31,0,0,0,0,11.7c0,.48,0,1,0,1.43V92.85c0,.47,0,1,0,1.42A20.44,20.44,0,0,0,.3,97.39a10.71,10.71,0,0,0,1,3,9.94,9.94,0,0,0,4.35,4.35,10.71,10.71,0,0,0,3,1,20.44,20.44,0,0,0,3.12.28l1.43,0H152.4l1.43,0a20.43,20.43,0,0,0,3.11-.28,10.71,10.71,0,0,0,3-1,10.36,10.36,0,0,0,2.52-1.83,10.1,10.1,0,0,0,1.83-2.52,10.39,10.39,0,0,0,1-3,20.44,20.44,0,0,0,.28-3.12c0-.47,0-1,0-1.42V13.13C165.52,12.65,165.51,12.18,165.5,11.7ZM162,92.83c0,.45,0,.9,0,1.35a18.42,18.42,0,0,1-.23,2.59,6.7,6.7,0,0,1-.64,2,6.53,6.53,0,0,1-1.18,1.63,6.35,6.35,0,0,1-1.63,1.18,6.7,6.7,0,0,1-2,.64,16.31,16.31,0,0,1-2.57.22c-.46,0-.92,0-1.38,0H11.79a18.85,18.85,0,0,1-2.58-.22,7.16,7.16,0,0,1-2-.65,6.47,6.47,0,0,1-1.62-1.18,6.35,6.35,0,0,1-1.18-1.63,7,7,0,0,1-.64-2,16.86,16.86,0,0,1-.22-2.58c0-.45,0-.91,0-1.35V13.15c0-.45,0-.9,0-1.35a17,17,0,0,1,.22-2.59,7,7,0,0,1,.64-2,6.41,6.41,0,0,1,2.81-2.8,6.68,6.68,0,0,1,2-.65,16.75,16.75,0,0,1,2.58-.22l1.36,0H152.37l1.36,0a16.75,16.75,0,0,1,2.58.22,6.84,6.84,0,0,1,2,.65,6.62,6.62,0,0,1,1.62,1.17,6.28,6.28,0,0,1,1.18,1.63,7,7,0,0,1,.65,2A19.4,19.4,0,0,1,162,11.8c0,.45,0,.9,0,1.36Z" style="fill:#231f20"/><path d="M162,11.8a19.4,19.4,0,0,0-.22-2.58,7,7,0,0,0-.65-2,6.28,6.28,0,0,0-1.18-1.63,6.62,6.62,0,0,0-1.62-1.17,6.84,6.84,0,0,0-2-.65,16.75,16.75,0,0,0-2.58-.22l-1.36,0H13.15l-1.36,0a16.75,16.75,0,0,0-2.58.22,6.68,6.68,0,0,0-2,.65,6.41,6.41,0,0,0-2.81,2.8,7,7,0,0,0-.64,2,17,17,0,0,0-.22,2.59c0,.45,0,.9,0,1.35V92.83c0,.44,0,.9,0,1.35a16.86,16.86,0,0,0,.22,2.58,7,7,0,0,0,.64,2,6.35,6.35,0,0,0,1.18,1.63,6.47,6.47,0,0,0,1.62,1.18,7.16,7.16,0,0,0,2,.65,18.85,18.85,0,0,0,2.58.22H152.37c.46,0,.92,0,1.38,0a16.31,16.31,0,0,0,2.57-.22,6.7,6.7,0,0,0,2-.64,6.35,6.35,0,0,0,1.63-1.18,6.53,6.53,0,0,0,1.18-1.63,6.7,6.7,0,0,0,.64-2,18.42,18.42,0,0,0,.23-2.59c0-.45,0-.9,0-1.35V13.16C162,12.7,162,12.25,162,11.8ZM39.6,32.37a9.1,9.1,0,0,1,6-3.12,9.15,9.15,0,0,1-2.1,6.52,7.55,7.55,0,0,1-6.06,2.86A8.56,8.56,0,0,1,39.6,32.37ZM51.29,64.88c-1.7,2.5-3.45,5-6.25,5s-3.6-1.6-6.7-1.6-4.1,1.55-6.65,1.65S27,67.28,25.25,64.78c-3.5-5.05-6.15-14.25-2.55-20.45a9.88,9.88,0,0,1,8.4-5.1c2.64,0,5.09,1.75,6.69,1.75s4.45-2.1,7.8-1.9A9.55,9.55,0,0,1,53,43.13a9.25,9.25,0,0,0-4.39,7.75,9.08,9.08,0,0,0,5.44,8.25A22.42,22.42,0,0,1,51.29,64.88Zm27.5-8.07H70.73V69.62H64.91V32.11H79c7.28,0,12.35,5,12.35,12.33S86.15,56.81,78.79,56.81ZM116,69.62h-5.38V65.13h-.13a9.61,9.61,0,0,1-8.58,4.78c-5.41,0-9.17-3.22-9.17-8.06s3.66-7.56,10.42-8l7.25-.44V51.35c0-3-2-4.7-5.56-4.7-2.94,0-5.07,1.5-5.51,3.82H94.12c.15-4.86,4.73-8.4,10.91-8.4,6.66,0,11,3.48,11,8.89Zm17.89,1.46c-2.34,6.58-5,8.73-10.68,8.73a16.6,16.6,0,0,1-2.26-.15v-4.5c.36,0,1.24.1,1.71.1,2.57,0,4-1.09,4.91-3.89l.52-1.67-9.85-27.29h6.08l6.87,22.14h.13l6.86-22.14h5.93Z" style="fill:#fff"/><path d="M37.45,38.63a8.56,8.56,0,0,1,2.15-6.26,9.1,9.1,0,0,1,6-3.12,9.15,9.15,0,0,1-2.1,6.52A7.55,7.55,0,0,1,37.45,38.63Z" style="fill:#fff"/><path d="M54.08,59.13a22.42,22.42,0,0,1-2.79,5.75c-1.7,2.5-3.45,5-6.25,5s-3.6-1.6-6.7-1.6-4.1,1.55-6.65,1.65S27,67.28,25.25,64.78c-3.5-5.05-6.15-14.25-2.55-20.45a9.88,9.88,0,0,1,8.4-5.1c2.64,0,5.09,1.75,6.69,1.75s4.45-2.1,7.8-1.9A9.55,9.55,0,0,1,53,43.13a9.25,9.25,0,0,0-4.39,7.75A9.08,9.08,0,0,0,54.08,59.13Z" style="fill:#fff"/><path d="M79,32.11H64.91V69.62h5.82V56.81h8.06c7.36,0,12.53-5,12.53-12.37S86.25,32.11,79,32.11ZM77.41,51.92H70.73V37h6.71c5,0,7.93,2.7,7.93,7.43S82.48,51.92,77.41,51.92Z" style="fill:#fff"/><path d="M116,51V69.62h-5.38V65.13h-.13a9.61,9.61,0,0,1-8.58,4.78c-5.41,0-9.17-3.22-9.17-8.06s3.66-7.56,10.42-8l7.25-.44V51.35c0-3-2-4.7-5.56-4.7-2.94,0-5.07,1.5-5.51,3.82H94.12c.15-4.86,4.73-8.4,10.91-8.4C111.69,42.07,116,45.55,116,51Z" style="fill:#fff"/><path d="M144.14,42.41,133.92,71.08c-2.34,6.58-5,8.73-10.68,8.73a16.6,16.6,0,0,1-2.26-.15v-4.5c.36,0,1.24.1,1.71.1,2.57,0,4-1.09,4.91-3.89l.52-1.67-9.85-27.29h6.08l6.87,22.14h.13l6.86-22.14Z" style="fill:#fff"/><path d="M43.51,35.77a7.55,7.55,0,0,1-6.06,2.86,8.56,8.56,0,0,1,2.15-6.26,9.1,9.1,0,0,1,6-3.12A9.15,9.15,0,0,1,43.51,35.77Z" style="fill:#231f20"/><path d="M54.08,59.13a22.42,22.42,0,0,1-2.79,5.75c-1.7,2.5-3.45,5-6.25,5s-3.6-1.6-6.7-1.6-4.1,1.55-6.65,1.65S27,67.28,25.25,64.78c-3.5-5.05-6.15-14.25-2.55-20.45a9.88,9.88,0,0,1,8.4-5.1c2.64,0,5.09,1.75,6.69,1.75s4.45-2.1,7.8-1.9A9.55,9.55,0,0,1,53,43.13a9.25,9.25,0,0,0-4.39,7.75A9.08,9.08,0,0,0,54.08,59.13Z" style="fill:#231f20"/><path d="M79,32.11H64.91V69.62h5.82V56.81h8.06c7.36,0,12.53-5,12.53-12.37S86.25,32.11,79,32.11ZM77.41,51.92H70.73V37h6.71c5,0,7.93,2.7,7.93,7.43S82.48,51.92,77.41,51.92Z" style="fill:#231f20"/><path d="M85.37,44.46c0,4.73-2.89,7.46-8,7.46H70.73V37h6.71C82.48,37,85.37,39.73,85.37,44.46Z" style="fill:#fff"/><path d="M105,42.07c-6.18,0-10.76,3.54-10.91,8.4h5.25c.44-2.32,2.57-3.82,5.51-3.82,3.56,0,5.56,1.66,5.56,4.7v2.08l-7.25.44c-6.76.42-10.42,3.17-10.42,8s3.76,8.06,9.17,8.06a9.61,9.61,0,0,0,8.58-4.78h.13v4.49H116V51C116,45.55,111.69,42.07,105,42.07Zm5.41,17.36c0,3.51-3,6-6.94,6-3.09,0-5.07-1.48-5.07-3.76s1.9-3.72,5.54-4l6.47-.41Z" style="fill:#231f20"/><path d="M138.21,42.41l-6.86,22.14h-.13l-6.87-22.14h-6.08l9.85,27.29-.52,1.67c-.88,2.8-2.34,3.89-4.91,3.89-.47,0-1.35-.05-1.71-.1v4.5a16.6,16.6,0,0,0,2.26.15c5.66,0,8.34-2.15,10.68-8.73l10.22-28.67Z" style="fill:#231f20"/></svg>