<svg width="30" height="19" viewBox="0 0 30 19" fill="none" xmlns="http://www.w3.org/2000/svg">
<path d="M18.8425 1.95447H10.8211V16.3242H18.8425V1.95447Z" fill="#7673C0"/>
<path fill-rule="evenodd" clip-rule="evenodd" d="M11.3304 9.14039C11.3274 6.33587 12.6186 3.68583 14.8318 1.95427C11.0732 -0.990222 5.67561 -0.561331 2.43241 2.93953C-0.810802 6.44039 -0.810802 11.8378 2.43241 15.3387C5.67561 18.8396 11.0732 19.2685 14.8318 16.324C12.6193 14.593 11.3282 11.944 11.3304 9.14039Z" fill="#EB001B"/>
<path fill-rule="evenodd" clip-rule="evenodd" d="M28.789 14.801V14.5168H28.9086V14.4558H28.6056V14.5168H28.7253V14.8112L28.789 14.801ZM29.3772 14.801V14.4457H29.2855L29.1786 14.6995L29.0716 14.4457H28.9774V14.801H29.0436V14.5345L29.1429 14.7655H29.2117L29.311 14.5345V14.8036L29.3772 14.801Z" fill="#00A1DF"/>
<path fill-rule="evenodd" clip-rule="evenodd" d="M29.6624 9.14052C29.6615 12.6383 27.6578 15.8287 24.5017 17.3575C21.3456 18.8862 17.591 18.4849 14.8318 16.3241C17.0433 14.5916 18.3345 11.943 18.3345 9.13925C18.3345 6.33547 17.0433 3.68688 14.8318 1.9544C17.591 -0.208003 21.3467 -0.610141 24.5037 0.918779C27.6607 2.4477 29.6648 5.63925 29.6649 9.13798L29.6624 9.14052Z" fill="#00A1DF"/>
</svg>
