<svg width="279" height="117" viewBox="0 0 279 117" fill="none" xmlns="http://www.w3.org/2000/svg">
<path fill-rule="evenodd" clip-rule="evenodd" d="M278.707 60.3877C278.707 40.6331 269.138 25.0454 250.85 25.0454C232.484 25.0454 221.372 40.6331 221.372 60.2334C221.372 83.4605 234.49 95.1898 253.319 95.1898C262.502 95.1898 269.447 93.1063 274.694 90.174V74.7407C269.447 77.3644 263.428 78.9849 255.788 78.9849C248.303 78.9849 241.667 76.3612 240.818 67.2555H278.552C278.552 66.2524 278.707 62.2397 278.707 60.3877ZM240.587 53.0569C240.587 44.3371 245.911 40.7102 250.773 40.7102C255.48 40.7102 260.496 44.3371 260.496 53.0569H240.587Z" fill="#32335C"/>
<path fill-rule="evenodd" clip-rule="evenodd" d="M191.586 25.0454C184.024 25.0454 179.163 28.5951 176.462 31.0644L175.459 26.2801H158.482V116.256L177.774 112.166L177.851 90.3283C180.629 92.3347 184.719 95.1898 191.509 95.1898C205.322 95.1898 217.9 84.0779 217.9 59.616C217.823 37.2377 205.091 25.0454 191.586 25.0454ZM186.956 78.2132C182.404 78.2132 179.703 76.5927 177.851 74.5864L177.774 45.9576C179.78 43.7197 182.558 42.1764 186.956 42.1764C193.979 42.1764 198.84 50.0474 198.84 60.1562C198.84 70.4965 194.056 78.2132 186.956 78.2132Z" fill="#32335C"/>
<path fill-rule="evenodd" clip-rule="evenodd" d="M151.305 16.3257V0.660889L131.936 4.75072V20.4927L151.305 16.3257Z" fill="#32335C"/>
<path d="M151.305 26.3572H131.936V93.8779H151.305V26.3572Z" fill="#32335C"/>
<path fill-rule="evenodd" clip-rule="evenodd" d="M111.179 32.0675L109.944 26.3572H93.2761V93.878H112.568V48.1182C117.121 42.1764 124.837 43.2567 127.229 44.1055V26.3572C124.76 25.4312 115.732 23.7335 111.179 32.0675Z" fill="#32335C"/>
<path fill-rule="evenodd" clip-rule="evenodd" d="M72.5955 9.61182L53.7669 13.6245L53.6897 75.4349C53.6897 86.8556 62.2552 95.2667 73.6758 95.2667C80.0035 95.2667 84.6335 94.1092 87.18 92.7202V77.0554C84.7107 78.0586 72.5183 81.6082 72.5183 70.1876V42.7934H87.18V26.357H72.5183L72.5955 9.61182Z" fill="#32335C"/>
<path fill-rule="evenodd" clip-rule="evenodd" d="M20.4309 45.9576C20.4309 42.9481 22.9002 41.7906 26.99 41.7906C32.8547 41.7906 40.2627 43.5654 46.1273 46.7292V28.5951C39.7225 26.0486 33.3948 25.0454 26.99 25.0454C11.3252 25.0454 0.907715 33.2251 0.907715 46.8836C0.907715 68.1815 30.231 64.7862 30.231 73.969C30.231 77.5187 27.1444 78.6762 22.823 78.6762C16.4182 78.6762 8.23854 76.0525 1.75655 72.5029V90.8685C8.93304 93.9552 16.1867 95.267 22.823 95.267C38.8737 95.267 49.9085 87.3188 49.9085 73.506C49.8313 50.5104 20.4309 54.6002 20.4309 45.9576Z" fill="#32335C"/>
</svg>
