<svg width="33" height="25" viewBox="0 0 33 25" fill="none" xmlns="http://www.w3.org/2000/svg">
<path fill-rule="evenodd" clip-rule="evenodd" d="M23.4246 12.9384H23.4425H23.4772H23.5118H23.5465H23.5811H23.6158H23.6505H23.6851H23.7198H23.7544H23.7891H23.8238H23.8584H23.8931H23.9278H23.9624H23.9971H24.0317H24.0664H24.1011H24.1357H24.1704H24.205H24.2397H24.2744H24.309H24.3437H24.3784H24.413H24.4477H24.4823H24.517H24.5517H24.5863H24.621H24.6557H24.6903H24.725H24.7596H24.7943H24.829H24.8636H24.8983H24.933H24.9676H25.0023H25.0369H25.0716H25.1062H25.1409H25.1756H25.2102H25.2449H25.2796H25.3142H25.3489H25.3835H25.4182H25.4529H25.4875H25.5164L25.5222 12.9385C25.5329 12.9388 25.5446 12.9393 25.5569 12.9399C25.568 12.9405 25.5796 12.9413 25.5915 12.9422C25.6029 12.9431 25.6145 12.944 25.6262 12.9451C25.6378 12.9462 25.6495 12.9474 25.6608 12.9486C25.6728 12.9499 25.6844 12.9514 25.6955 12.9529C25.7079 12.9545 25.7196 12.9563 25.7302 12.9581C25.7378 12.9594 25.7448 12.9607 25.7511 12.9621L25.7648 12.9652C25.7764 12.9679 25.788 12.9708 25.7995 12.974C25.8111 12.9773 25.8227 12.9807 25.8342 12.9844C25.8458 12.9881 25.8573 12.992 25.8688 12.9962C25.8804 13.0005 25.892 13.0049 25.9035 13.0096C25.9151 13.0144 25.9267 13.0195 25.9381 13.0247C25.9498 13.0301 25.9614 13.0356 25.9728 13.0415C25.9845 13.0474 25.996 13.0537 26.0074 13.0601C26.0191 13.0667 26.0307 13.0737 26.0421 13.0808C26.0538 13.0881 26.0654 13.0956 26.0768 13.1035C26.0885 13.1116 26.1001 13.1199 26.1114 13.1285C26.1232 13.1374 26.1348 13.1466 26.1461 13.1561C26.1579 13.1659 26.1694 13.1761 26.1808 13.1866C26.1926 13.1975 26.2042 13.2087 26.2154 13.2202C26.2273 13.2323 26.2389 13.2449 26.2501 13.2577C26.262 13.2714 26.2736 13.2854 26.2847 13.2998C26.2968 13.3153 26.3083 13.3312 26.3194 13.3475C26.3315 13.3654 26.3431 13.3837 26.3541 13.4026C26.3664 13.4238 26.378 13.4457 26.3887 13.4681C26.4015 13.4947 26.4131 13.5221 26.4234 13.5503C26.4373 13.5882 26.4489 13.6274 26.4581 13.6679C26.4739 13.7382 26.4824 13.8122 26.4824 13.8894C26.4824 13.967 26.4739 14.0413 26.4581 14.1118C26.4489 14.1525 26.4373 14.1918 26.4234 14.2298C26.4131 14.258 26.4015 14.2855 26.3887 14.3121C26.378 14.3346 26.3664 14.3565 26.3541 14.3777C26.3431 14.3966 26.3316 14.4149 26.3194 14.4328C26.3083 14.4492 26.2967 14.4651 26.2847 14.4806C26.2736 14.495 26.262 14.509 26.2501 14.5226C26.2389 14.5354 26.2273 14.548 26.2154 14.5601C26.2042 14.5716 26.1926 14.5828 26.1808 14.5937C26.1694 14.6041 26.1579 14.6142 26.1461 14.624C26.1348 14.6335 26.1232 14.6427 26.1114 14.6516C26.1001 14.6602 26.0885 14.6684 26.0768 14.6765C26.0654 14.6843 26.0538 14.6918 26.0421 14.6991C26.0307 14.7062 26.0191 14.7131 26.0074 14.7196C25.996 14.7261 25.9845 14.7322 25.9728 14.7382C25.9614 14.744 25.9498 14.7495 25.9381 14.7549C25.9267 14.7601 25.9151 14.765 25.9035 14.7698C25.892 14.7744 25.8804 14.7789 25.8688 14.7831C25.8573 14.7872 25.8458 14.7911 25.8342 14.7948C25.8227 14.7984 25.8111 14.8018 25.7995 14.805C25.788 14.8081 25.7764 14.811 25.7648 14.8137L25.7511 14.8168C25.7448 14.8182 25.7378 14.8196 25.7302 14.821C25.7196 14.8228 25.7079 14.8246 25.6955 14.8263C25.6844 14.8278 25.6728 14.8293 25.6608 14.8306C25.6495 14.8319 25.6378 14.833 25.6262 14.8341C25.6145 14.8351 25.6029 14.8361 25.5915 14.8369C25.5796 14.8378 25.568 14.8385 25.5569 14.8391C25.5446 14.8397 25.5329 14.8402 25.5222 14.8404L25.5036 14.8407H25.4875H25.4529H25.4182H25.3835H25.3489H25.3142H25.2796H25.2449H25.2102H25.1756H25.1409H25.1062H25.0716H25.0369H25.0023H24.9676H24.933H24.8983H24.8636H24.829H24.7943H24.7596H24.725H24.6903H24.6557H24.621H24.5863H24.5517H24.517H24.4823H24.4477H24.413H24.3784H24.3437H24.309H24.2744H24.2397H24.205H24.1704H24.1357H24.1011H24.0664H24.0317H23.9971H23.9624H23.9278H23.8931H23.8584H23.8238H23.7891H23.7544H23.7198H23.6851H23.6505H23.6158H23.5811H23.5465H23.5118H23.4772H23.4425H23.4246V12.9384ZM26.2155 10.7854C26.2295 10.8493 26.237 10.9169 26.237 10.9881C26.237 11.0592 26.2295 11.1268 26.2155 11.1906C26.2066 11.2316 26.1949 11.271 26.1809 11.3088C26.1706 11.3363 26.159 11.363 26.1462 11.3888C26.1355 11.4104 26.1239 11.4314 26.1116 11.4516C26.1006 11.4696 26.089 11.487 26.0769 11.5039C26.0658 11.5193 26.0542 11.5342 26.0422 11.5488C26.0311 11.5623 26.0195 11.5753 26.0076 11.5881C25.9963 11.6 25.9848 11.6116 25.9729 11.6228C25.9616 11.6335 25.9501 11.6438 25.9383 11.6538C25.9269 11.6634 25.9154 11.6727 25.9036 11.6816C25.8922 11.6903 25.8807 11.6986 25.8689 11.7067C25.8576 11.7145 25.846 11.722 25.8343 11.7292C25.8229 11.7363 25.8113 11.7431 25.7996 11.7495C25.7882 11.7559 25.7767 11.762 25.765 11.7678C25.7535 11.7735 25.7419 11.779 25.7303 11.7842C25.7188 11.7893 25.7073 11.7942 25.6956 11.7988C25.6842 11.8033 25.6726 11.8076 25.661 11.8117C25.6495 11.8157 25.638 11.8195 25.6263 11.823C25.6148 11.8265 25.6033 11.8298 25.5916 11.8328C25.5802 11.8358 25.5686 11.8386 25.557 11.8411C25.5455 11.8436 25.534 11.8459 25.5223 11.848L25.5139 11.8495C25.5072 11.8507 25.4982 11.852 25.4877 11.8533C25.4774 11.8546 25.4657 11.856 25.453 11.8573C25.442 11.8584 25.4304 11.8595 25.4184 11.8605C25.407 11.8614 25.3953 11.8623 25.3837 11.863C25.372 11.8638 25.3604 11.8644 25.349 11.8649C25.337 11.8654 25.3254 11.8657 25.3144 11.8657L25.3089 11.8658H25.2797H25.245H25.2104H25.1757H25.1411H25.1064H25.0718H25.0371H25.0024H24.9678H24.9331H24.8984H24.8638H24.8291H24.7945H24.7598H24.7252H24.6905H24.6558H24.6212H24.5865H24.5518H24.5172H24.4825H24.4479H24.4132H24.3786H24.3439H24.3092H24.2746H24.2399H24.2052H24.1706H24.1359H24.1013H24.0666H24.032H23.9973H23.9626H23.928H23.8933H23.8586H23.824H23.7893H23.7547H23.72H23.6853H23.6507H23.616H23.5814H23.5467H23.512H23.4774H23.4427H23.4246V10.1103H23.4427H23.4774H23.512H23.5467H23.5814H23.616H23.6507H23.6853H23.72H23.7547H23.7893H23.824H23.8586H23.8933H23.928H23.9626H23.9973H24.032H24.0666H24.1013H24.1359H24.1706H24.2052H24.2399H24.2746H24.3092H24.3439H24.3786H24.4132H24.4479H24.4825H24.5172H24.5518H24.5865H24.6212H24.6558H24.6905H24.7252H24.7598H24.7945H24.8291H24.8638H24.8984H24.9331H24.9678H25.0024H25.0371H25.0718H25.1064H25.1411H25.1757H25.2104H25.245H25.2797H25.3144H25.329L25.349 10.111C25.3604 10.1114 25.372 10.1121 25.3837 10.1129C25.3953 10.1136 25.407 10.1145 25.4184 10.1154C25.4304 10.1164 25.442 10.1175 25.453 10.1186C25.4657 10.1198 25.4774 10.1211 25.4877 10.1222C25.4982 10.1234 25.5072 10.1246 25.5139 10.1256L25.5223 10.1271C25.534 10.1292 25.5455 10.1315 25.557 10.1341C25.5686 10.1367 25.5802 10.1395 25.5916 10.1425C25.6033 10.1456 25.6148 10.1488 25.6263 10.1523C25.638 10.1559 25.6495 10.1597 25.661 10.1637C25.6726 10.1678 25.6842 10.1722 25.6956 10.1767C25.7073 10.1814 25.7188 10.1863 25.7303 10.1914C25.7419 10.1966 25.7535 10.2021 25.765 10.2078C25.7767 10.2136 25.7882 10.2197 25.7996 10.2261C25.8113 10.2326 25.8229 10.2394 25.8343 10.2464C25.846 10.2537 25.8576 10.2612 25.8689 10.269C25.8807 10.277 25.8922 10.2855 25.9036 10.2941C25.9154 10.3031 25.9269 10.3124 25.9383 10.3219C25.9501 10.332 25.9616 10.3423 25.9729 10.353C25.9848 10.3642 25.9963 10.3758 26.0076 10.3877C26.0195 10.4004 26.0311 10.4135 26.0422 10.427C26.0542 10.4416 26.0658 10.4565 26.0769 10.4719C26.089 10.4888 26.1006 10.5062 26.1116 10.5242C26.1239 10.5445 26.1355 10.5654 26.1462 10.587C26.159 10.6128 26.1706 10.6395 26.1809 10.6671C26.1949 10.7049 26.2066 10.7443 26.2155 10.7854ZM30.514 1.68274H30.5283L30.5282 19.7116C30.5282 19.8194 30.5233 19.9259 30.514 20.0312C30.5059 20.1239 30.4943 20.2156 30.4794 20.3061C30.4693 20.367 30.4578 20.4272 30.4447 20.487C30.4341 20.5356 30.4226 20.5839 30.41 20.6318C30.3992 20.6731 30.3876 20.7141 30.3754 20.7548C30.3643 20.7916 30.3529 20.8282 30.3407 20.8645C30.3296 20.8974 30.318 20.9301 30.3061 20.9626C30.2949 20.9928 30.2833 21.0229 30.2714 21.0528C30.2602 21.0809 30.2486 21.1087 30.2367 21.1364C30.2255 21.1627 30.2139 21.1888 30.202 21.2147C30.1907 21.2394 30.1792 21.264 30.1674 21.2884C30.156 21.3117 30.1445 21.335 30.1327 21.3581C30.1214 21.3802 30.1098 21.4022 30.0981 21.4241C30.0867 21.4451 30.0751 21.4659 30.0634 21.4867C30.052 21.5068 30.0404 21.5267 30.0287 21.5466C30.0173 21.5659 30.0058 21.5851 29.994 21.6042C29.9826 21.6228 29.9711 21.6413 29.9594 21.6597C29.948 21.6775 29.9363 21.6951 29.9247 21.7127C29.9133 21.7298 29.9017 21.7467 29.89 21.7636C29.8786 21.7802 29.867 21.7967 29.8554 21.8131C29.8439 21.829 29.8324 21.845 29.8207 21.8608C29.8093 21.8762 29.7977 21.8914 29.786 21.9066C29.7746 21.9216 29.763 21.9365 29.7514 21.9513C29.7399 21.9658 29.7284 21.9802 29.7167 21.9945C29.7053 22.0085 29.6936 22.0223 29.682 22.0362C29.6705 22.0498 29.6591 22.0636 29.6474 22.0771C29.6359 22.0902 29.6243 22.1032 29.6127 22.1163C29.6012 22.1291 29.5897 22.1419 29.578 22.1546C29.5665 22.1671 29.555 22.1796 29.5434 22.1919C29.5319 22.2041 29.5203 22.216 29.5087 22.2279C29.4972 22.2398 29.4857 22.2518 29.474 22.2635C29.4626 22.2749 29.4509 22.2862 29.4394 22.2975C29.4278 22.3087 29.4163 22.3199 29.4047 22.331C29.3932 22.3419 29.3816 22.3526 29.37 22.3634C29.3585 22.374 29.347 22.3846 29.3353 22.3951C29.3239 22.4054 29.3123 22.4157 29.3007 22.4259C29.2892 22.436 29.2776 22.446 29.266 22.456C29.2545 22.4658 29.243 22.4757 29.2314 22.4854C29.2199 22.495 29.2083 22.5044 29.1967 22.5138C29.1852 22.5232 29.1737 22.5326 29.162 22.5418C29.1506 22.551 29.1389 22.5599 29.1274 22.5688C29.1158 22.5778 29.1043 22.5867 29.0927 22.5955C29.0812 22.6041 29.0696 22.6126 29.058 22.6212C29.0465 22.6296 29.035 22.6382 29.0233 22.6466C29.0119 22.6548 29.0003 22.6628 28.9887 22.671C28.9771 22.679 28.9656 22.6872 28.954 22.6951C28.9425 22.7029 28.9309 22.7106 28.9194 22.7183C28.9078 22.726 28.8963 22.7337 28.8847 22.7413C28.8732 22.7487 28.8616 22.756 28.85 22.7634C28.8385 22.7707 28.827 22.778 28.8153 22.7851C28.8038 22.7922 28.7923 22.7992 28.7807 22.8062L28.746 22.8268C28.7345 22.8336 28.723 22.8403 28.7114 22.8469C28.6999 22.8535 28.6883 22.8599 28.6767 22.8664C28.6651 22.8728 28.6536 22.8793 28.642 22.8856C28.6305 22.8919 28.6189 22.8979 28.6073 22.904C28.5958 22.9101 28.5843 22.9164 28.5727 22.9224C28.5612 22.9283 28.5496 22.9339 28.538 22.9397C28.5265 22.9455 28.515 22.9513 28.5033 22.957C28.4918 22.9626 28.4802 22.9681 28.4687 22.9735L28.434 22.9898L28.3993 23.0056C28.3878 23.0108 28.3762 23.0158 28.3647 23.0208C28.3531 23.0258 28.3416 23.031 28.33 23.0359C28.3185 23.0408 28.3069 23.0454 28.2953 23.0501C28.2838 23.0549 28.2723 23.0597 28.2607 23.0643C28.2492 23.0689 28.2376 23.0733 28.226 23.0778C28.2145 23.0822 28.203 23.0866 28.1914 23.091L28.1567 23.1038C28.1452 23.108 28.1335 23.112 28.122 23.1161C28.1104 23.1201 28.099 23.1243 28.0873 23.1283C28.0758 23.1322 28.0642 23.1358 28.0527 23.1396L28.018 23.1509C28.0065 23.1545 27.9949 23.1581 27.9833 23.1616L27.9487 23.172C27.9371 23.1754 27.9256 23.1789 27.914 23.1821C27.9025 23.1854 27.8909 23.1884 27.8793 23.1916C27.8678 23.1947 27.8563 23.198 27.8447 23.201L27.81 23.2098L27.7753 23.2183L27.7407 23.2265C27.7292 23.2292 27.7176 23.2316 27.706 23.2341C27.6944 23.2367 27.6829 23.2393 27.6713 23.2417L27.6367 23.2487L27.602 23.2553C27.5904 23.2575 27.5789 23.2598 27.5673 23.2619C27.5558 23.2639 27.5442 23.2657 27.5327 23.2676L27.498 23.2734L27.4633 23.2786L27.4287 23.2835C27.4171 23.2851 27.4056 23.2869 27.394 23.2884C27.3825 23.2899 27.3709 23.291 27.3593 23.2924C27.3478 23.2937 27.3362 23.2951 27.3247 23.2964C27.3131 23.2976 27.3016 23.2989 27.29 23.3C27.2785 23.3011 27.2669 23.3021 27.2553 23.3031C27.2437 23.3041 27.2322 23.3052 27.2206 23.3062C27.2091 23.3071 27.1975 23.3078 27.186 23.3086L27.1513 23.3108C27.1398 23.3115 27.1282 23.3123 27.1167 23.3129C27.1051 23.3135 27.0935 23.3137 27.082 23.3142L27.0473 23.3155L27.0127 23.3164C27.0011 23.3167 26.9896 23.3167 26.978 23.3169L26.9433 23.3173L26.9362 23.3174H26.9087H26.874H26.8393H26.8047H26.77H26.7353H26.7006H26.666H26.6313H26.5967H26.562H26.5273H26.4926H26.458H26.4233H26.3886H26.354H26.3193H26.2847H26.25H26.2153H26.1806H26.146H26.1113H26.0767H26.042H26.0073H25.9726H25.938H25.9033H25.8686H25.834H25.7993H25.7646H25.73H25.6953H25.6606H25.626H25.5913H25.5567H25.522H25.4873H25.4526H25.418H25.3833H25.3486H25.314H25.2793H25.2446H25.21H25.1753H25.1406H25.106H25.0713H25.0366H25.002H24.9673H24.9326H24.898H24.8633H24.8286H24.794H24.7593H24.7246H24.69H24.6553H24.6206H24.5859H24.5513H24.5166H24.482H24.4473H24.4126H24.3779H24.3433H24.3086H24.274H24.2393H24.2046H24.17H24.1353H24.1006H24.0659H24.0313H23.9966H23.962H23.9273H23.8926H23.8579H23.8233H23.7886H23.754H23.7193H23.6846H23.6499H23.6153H23.5806H23.5459H23.5113H23.4766H23.442H23.4073H23.3726H23.3379H23.3033H23.2686H23.2339H23.1993H23.1646H23.1299H23.0953H23.0606H23.0259H22.9913H22.9566H22.9219H22.8873H22.8526H22.8179H22.7833H22.7486H22.7139H22.6793H22.6446H22.6099H22.5753H22.5406H22.5059H22.4713H22.4366H22.4019H22.3673H22.3326H22.2979H22.2633H22.2286H22.1939H22.1593H22.1246H22.0899H22.0553H22.0206H21.9859H21.9513H21.9166H21.8819H21.8473H21.8126H21.7779H21.7432H21.6685V15.9664H21.7432H21.7779H21.8126H21.8473H21.8819H21.9166H21.9513H21.9859H22.0206H22.0553H22.0899H22.1246H22.1593H22.1939H22.2286H22.2633H22.2979H22.3326H22.3673H22.4019H22.4366H22.4713H22.5059H22.5406H22.5753H22.6099H22.6446H22.6793H22.7139H22.7486H22.7833H22.8179H22.8526H22.8873H22.9219H22.9566H22.9913H23.0259H23.0606H23.0953H23.1299H23.1646H23.1993H23.2339H23.2686H23.3033H23.3379H23.3726H23.4073H23.442H23.4766H23.5113H23.5459H23.5806H23.6153H23.6499H23.6846H23.7193H23.754H23.7886H23.8233H23.8579H23.8926H23.9273H23.962H23.9966H24.0313H24.0659H24.1006H24.1353H24.17H24.2046H24.2393H24.274H24.3086H24.3433H24.3779H24.4126H24.4473H24.482H24.5166H24.5513H24.5859H24.6206H24.6553H24.69H24.7246H24.7593H24.794H24.8286H24.8633H24.898H24.9326H24.9673H25.002H25.0366H25.0713H25.106H25.1406H25.1753H25.21H25.2446H25.2793H25.314H25.3486H25.3833H25.418H25.4526H25.4873H25.522H25.5567H25.5913H25.626H25.6606H25.6953H25.73H25.7646H25.7993H25.834H25.8686H25.9033H25.938H25.9726H26.0073H26.042H26.0767H26.1113H26.146H26.1806H26.2153H26.25H26.2847H26.3193H26.354H26.3886H26.4233H26.458H26.4926H26.5273H26.562H26.5967H26.6313H26.666H26.7006H26.7353H26.77H26.8047H26.8393H26.874H26.9087H26.9433H26.978H27.0127H27.0473H27.082H27.1167H27.1513H27.186H27.2206H27.239L27.2553 15.9663L27.29 15.966L27.3247 15.9652C27.3362 15.965 27.3478 15.9648 27.3593 15.9644C27.3709 15.964 27.3824 15.9634 27.394 15.9629L27.4287 15.9613L27.4633 15.9592L27.498 15.9568L27.5327 15.9541L27.5673 15.9509C27.5789 15.9498 27.5905 15.9487 27.602 15.9475C27.6136 15.9463 27.6251 15.9449 27.6367 15.9435L27.6713 15.9393C27.6829 15.9378 27.6945 15.9364 27.706 15.9348C27.7176 15.9331 27.7291 15.9313 27.7407 15.9296C27.7523 15.9279 27.7638 15.9261 27.7753 15.9243L27.81 15.9184L27.8447 15.9121C27.8562 15.91 27.8679 15.9079 27.8793 15.9056C27.891 15.9033 27.9025 15.9008 27.914 15.8984L27.9487 15.8908C27.9603 15.8883 27.9718 15.8857 27.9833 15.8829C27.995 15.8802 28.0065 15.8773 28.018 15.8744C28.0296 15.8715 28.0412 15.8686 28.0527 15.8656C28.0642 15.8625 28.0758 15.8594 28.0873 15.8562C28.0989 15.853 28.1105 15.8497 28.122 15.8463C28.1336 15.8429 28.1452 15.8395 28.1567 15.836L28.1914 15.8251C28.203 15.8213 28.2145 15.8175 28.226 15.8136C28.2376 15.8096 28.2492 15.8057 28.2607 15.8017C28.2723 15.7976 28.2839 15.7935 28.2953 15.7892C28.307 15.7849 28.3185 15.7804 28.33 15.776C28.3416 15.7715 28.3532 15.7669 28.3647 15.7623C28.3763 15.7576 28.3879 15.7529 28.3993 15.7481C28.411 15.7432 28.4225 15.7381 28.434 15.7331C28.4456 15.7279 28.4572 15.7227 28.4687 15.7174C28.4803 15.712 28.4919 15.7066 28.5033 15.7011C28.5149 15.6955 28.5266 15.6899 28.538 15.6842C28.5497 15.6783 28.5612 15.6724 28.5727 15.6663C28.5843 15.6603 28.5959 15.654 28.6073 15.6477C28.619 15.6413 28.6306 15.6349 28.642 15.6284C28.6537 15.6217 28.6652 15.615 28.6767 15.6082C28.6883 15.6012 28.6999 15.5943 28.7114 15.5871C28.723 15.5798 28.7345 15.5725 28.746 15.565C28.7577 15.5574 28.7692 15.5496 28.7807 15.5418C28.7924 15.5339 28.8039 15.5258 28.8153 15.5176C28.827 15.5093 28.8386 15.5009 28.85 15.4923C28.8617 15.4836 28.8733 15.4748 28.8847 15.4659C28.8964 15.4567 28.9079 15.4475 28.9194 15.4381C28.931 15.4285 28.9426 15.4188 28.954 15.4089C28.9657 15.3988 28.9773 15.3886 28.9887 15.3782C29.0004 15.3676 29.012 15.3567 29.0233 15.3458C29.0351 15.3346 29.0466 15.3232 29.058 15.3117C29.0698 15.2997 29.0813 15.2877 29.0927 15.2754C29.1045 15.2628 29.116 15.25 29.1274 15.237C29.1391 15.2235 29.1507 15.2099 29.162 15.1961C29.1738 15.1817 29.1854 15.1671 29.1967 15.1524C29.2085 15.1369 29.2201 15.1214 29.2314 15.1055C29.2433 15.0887 29.2548 15.0716 29.266 15.0544C29.2779 15.0361 29.2895 15.0176 29.3007 14.9988C29.3127 14.9786 29.3243 14.9582 29.3353 14.9375C29.3474 14.915 29.359 14.8922 29.37 14.869C29.3823 14.8431 29.3938 14.8168 29.4047 14.7902C29.4171 14.7596 29.4288 14.7286 29.4394 14.6971C29.4524 14.6582 29.4639 14.6185 29.474 14.5782C29.4888 14.5192 29.5004 14.4586 29.5087 14.3966C29.5187 14.3213 29.524 14.244 29.524 14.1645C29.524 14.0871 29.5188 14.012 29.5087 13.939C29.5004 13.879 29.4888 13.8205 29.474 13.7636C29.4639 13.7248 29.4523 13.6868 29.4394 13.6494C29.4287 13.6188 29.4172 13.5887 29.4047 13.5591C29.3938 13.5334 29.3823 13.5082 29.37 13.4833C29.359 13.4609 29.3474 13.4388 29.3353 13.4171C29.3242 13.3971 29.3127 13.3773 29.3007 13.3578C29.2895 13.3397 29.2779 13.3219 29.266 13.3043C29.2548 13.2877 29.2433 13.2712 29.2314 13.255C29.2201 13.2397 29.2085 13.2247 29.1967 13.2098C29.1854 13.1956 29.1738 13.1815 29.162 13.1676C29.1507 13.1543 29.1392 13.1411 29.1274 13.1281C29.116 13.1155 29.1045 13.1032 29.0927 13.091C29.0813 13.0792 29.0698 13.0676 29.058 13.0561C29.0466 13.045 29.0351 13.034 29.0233 13.0232C29.012 13.0126 29.0004 13.0022 28.9887 12.992C28.9773 12.982 28.9657 12.9721 28.954 12.9623C28.9426 12.9528 28.931 12.9434 28.9194 12.9341C28.9079 12.9251 28.8964 12.9161 28.8847 12.9073C28.8732 12.8986 28.8617 12.8901 28.85 12.8816C28.8386 12.8734 28.827 12.8652 28.8153 12.8572C28.8039 12.8493 28.7924 12.8415 28.7807 12.8338C28.7692 12.8262 28.7577 12.8188 28.746 12.8114C28.7345 12.8042 28.723 12.797 28.7114 12.79C28.6999 12.7831 28.6883 12.7763 28.6767 12.7696C28.6652 12.763 28.6537 12.7565 28.642 12.75C28.6306 12.7437 28.619 12.7374 28.6073 12.7313C28.5959 12.7252 28.5843 12.7192 28.5727 12.7133C28.5612 12.7074 28.5497 12.7016 28.538 12.696C28.5265 12.6904 28.515 12.6848 28.5033 12.6793C28.4919 12.674 28.4803 12.6688 28.4687 12.6636C28.4572 12.6584 28.4456 12.6534 28.434 12.6484C28.4225 12.6435 28.411 12.6386 28.3993 12.6338C28.3878 12.6291 28.3763 12.6244 28.3647 12.6198C28.3532 12.6153 28.3416 12.6108 28.33 12.6064C28.3185 12.6021 28.3069 12.5979 28.2953 12.5937C28.2838 12.5895 28.2723 12.5855 28.2607 12.5814C28.2492 12.5775 28.2376 12.5735 28.226 12.5696C28.2145 12.5658 28.203 12.5621 28.1914 12.5585C28.1799 12.5548 28.1683 12.5513 28.1567 12.5478L28.122 12.5376C28.1105 12.5343 28.0989 12.531 28.0873 12.5278C28.0758 12.5246 28.0642 12.5216 28.0527 12.5186C28.0412 12.5156 28.0296 12.5127 28.018 12.5099C28.0065 12.507 27.9949 12.5042 27.9833 12.5015C27.9718 12.4987 27.9603 12.4961 27.9487 12.4936C27.9372 12.491 27.9256 12.4885 27.914 12.4861C27.9025 12.4837 27.891 12.4813 27.8793 12.479L27.8447 12.4723L27.81 12.4661C27.7985 12.4641 27.7869 12.4621 27.7753 12.4602L27.7407 12.4547C27.7292 12.453 27.7176 12.4513 27.706 12.4497L27.6713 12.445L27.6367 12.4406L27.602 12.4366L27.5673 12.433L27.5327 12.4297L27.498 12.4268L27.466 12.4244L27.466 12.3826L27.498 12.3777L27.5327 12.3719C27.5443 12.3699 27.5558 12.3679 27.5673 12.3658L27.602 12.3591C27.6136 12.3568 27.6252 12.3544 27.6367 12.352L27.6713 12.3444C27.6829 12.3418 27.6945 12.3391 27.706 12.3363C27.7176 12.3335 27.7292 12.3306 27.7407 12.3276C27.7523 12.3247 27.7638 12.3215 27.7753 12.3184C27.7869 12.3153 27.7985 12.312 27.81 12.3087C27.8216 12.3054 27.8332 12.302 27.8447 12.2985C27.8563 12.295 27.8679 12.2913 27.8793 12.2877C27.891 12.2839 27.9025 12.28 27.914 12.2761C27.9257 12.2722 27.9372 12.2681 27.9487 12.264C27.9603 12.2599 27.9719 12.2557 27.9833 12.2513C27.995 12.247 28.0065 12.2425 28.018 12.238C28.0296 12.2334 28.0412 12.2287 28.0527 12.2239C28.0643 12.2191 28.0759 12.2142 28.0873 12.2092C28.099 12.2041 28.1105 12.1989 28.122 12.1936C28.1337 12.1883 28.1452 12.1828 28.1567 12.1772C28.1683 12.1716 28.1799 12.1659 28.1914 12.1601C28.203 12.1542 28.2146 12.1482 28.226 12.1421C28.2377 12.1359 28.2492 12.1296 28.2607 12.1232C28.2724 12.1167 28.2839 12.1101 28.2953 12.1034C28.307 12.0965 28.3186 12.0896 28.33 12.0825C28.3417 12.0754 28.3532 12.0681 28.3647 12.0607C28.3764 12.0532 28.3879 12.0455 28.3993 12.0377C28.411 12.0298 28.4226 12.0217 28.434 12.0136C28.4457 12.0052 28.4573 11.9968 28.4687 11.9882C28.4804 11.9794 28.492 11.9705 28.5033 11.9615C28.5151 11.9522 28.5266 11.9428 28.538 11.9333C28.5497 11.9235 28.5613 11.9136 28.5727 11.9035C28.5844 11.8931 28.596 11.8826 28.6073 11.8719C28.6191 11.8609 28.6307 11.8498 28.642 11.8386C28.6538 11.8269 28.6654 11.8151 28.6767 11.8032C28.6885 11.7908 28.7 11.7782 28.7114 11.7654C28.7232 11.7522 28.7347 11.7387 28.746 11.7251C28.7578 11.7109 28.7694 11.6965 28.7807 11.6819C28.7926 11.6665 28.8041 11.651 28.8153 11.6352C28.8273 11.6185 28.8388 11.6016 28.85 11.5845C28.862 11.5663 28.8736 11.5479 28.8847 11.5292C28.8967 11.509 28.9083 11.4886 28.9194 11.4679C28.9315 11.4451 28.9431 11.4221 28.954 11.3988C28.9663 11.3726 28.9779 11.3461 28.9887 11.3192C29.0013 11.288 29.0128 11.2563 29.0233 11.2242C29.0366 11.1838 29.0481 11.1428 29.058 11.1012C29.074 11.0339 29.0856 10.9651 29.0927 10.8951C29.0983 10.8399 29.1013 10.7839 29.1013 10.7274C29.1013 10.6677 29.0983 10.6095 29.0927 10.5528C29.0855 10.4803 29.0739 10.4103 29.058 10.3426C29.0481 10.3004 29.0365 10.2591 29.0233 10.2189C29.0128 10.1866 29.0012 10.1551 28.9887 10.1241C28.9779 10.0974 28.9663 10.0712 28.954 10.0454C28.943 10.0225 28.9315 9.9999 28.9194 9.97769C28.9083 9.95735 28.8967 9.93734 28.8847 9.9176C28.8735 9.89929 28.862 9.88123 28.85 9.86346C28.8388 9.84682 28.8272 9.83043 28.8153 9.81428C28.8041 9.79899 28.7926 9.78391 28.7807 9.76905C28.7694 9.75486 28.7579 9.74081 28.746 9.72699C28.7347 9.71387 28.7231 9.70098 28.7114 9.6882C28.7 9.67591 28.6885 9.66379 28.6767 9.65182C28.6653 9.64029 28.6538 9.62892 28.642 9.6177C28.6306 9.60682 28.6191 9.59607 28.6073 9.58551C28.596 9.57527 28.5844 9.56514 28.5727 9.55516C28.5613 9.54547 28.5497 9.53589 28.538 9.52646C28.5266 9.51729 28.5151 9.5082 28.5033 9.49929C28.4919 9.49058 28.4804 9.48201 28.4687 9.47356C28.4572 9.46528 28.4457 9.45715 28.434 9.4491C28.4226 9.44125 28.411 9.43352 28.3993 9.42588C28.3879 9.41838 28.3763 9.41099 28.3647 9.40372C28.3532 9.3966 28.3417 9.38959 28.33 9.38267C28.3186 9.37586 28.307 9.36917 28.2953 9.36256C28.2839 9.35607 28.2724 9.34967 28.2607 9.34338C28.2492 9.33718 28.2377 9.33112 28.226 9.32509C28.2145 9.31918 28.203 9.31335 28.1914 9.30761C28.1799 9.30196 28.1683 9.29633 28.1567 9.29088C28.1452 9.28549 28.1336 9.28015 28.122 9.27496C28.1105 9.26982 28.099 9.26486 28.0873 9.25987C28.0759 9.25497 28.0643 9.25015 28.0527 9.24539C28.0412 9.24072 28.0296 9.2361 28.018 9.23158C28.0065 9.2271 27.995 9.22266 27.9833 9.21834C27.9718 9.21407 27.9603 9.20988 27.9487 9.20576C27.9372 9.20169 27.9256 9.19774 27.914 9.19382C27.9025 9.18995 27.891 9.18617 27.8793 9.18245C27.8679 9.17876 27.8563 9.17512 27.8447 9.17158C27.8331 9.16806 27.8217 9.16454 27.81 9.16116C27.7985 9.15785 27.7869 9.15464 27.7753 9.15147C27.7638 9.1483 27.7523 9.14524 27.7407 9.14221L27.706 9.13336C27.6945 9.1305 27.683 9.1277 27.6713 9.12499C27.6598 9.12231 27.6483 9.11971 27.6367 9.11717L27.602 9.10976C27.5905 9.10737 27.579 9.10494 27.5673 9.10269C27.5558 9.10044 27.5442 9.09837 27.5327 9.09623L27.498 9.09012C27.4865 9.08816 27.475 9.08617 27.4633 9.08432L27.4287 9.07904L27.394 9.07414L27.3593 9.06952L27.3247 9.0654L27.29 9.06165L27.2553 9.05816L27.2206 9.0551L27.186 9.05242L27.1513 9.04994L27.1167 9.04795L27.1029 9.04717L27.082 9.04587L27.0473 9.04382L27.0127 9.04189L26.978 9.04007L26.9433 9.0384L26.9087 9.0369L26.874 9.03563L26.8393 9.03456L26.8047 9.03378L26.77 9.03332L26.7509 9.03326H26.7353H26.7006H26.666H26.6313H26.5967H26.562H26.5273H26.4926H26.458H26.4233H26.3886H26.354H26.3193H26.2847H26.25H26.2153H26.1806H26.146H26.1113H26.0767H26.042H26.0073H25.9726H25.938H25.9033H25.8686H25.834H25.7993H25.7646H25.73H25.6953H25.6606H25.626H25.5913H25.5567H25.522H25.4873H25.4526H25.418H25.3833H25.3486H25.314H25.2793H25.2446H25.21H25.1753H25.1406H25.106H25.0713H25.0366H25.002H24.9673H24.9326H24.898H24.8633H24.8286H24.794H24.7593H24.7246H24.69H24.6553H24.6206H24.5859H24.5513H24.5166H24.482H24.4473H24.4126H24.3779H24.3433H24.3086H24.274H24.2393H24.2046H24.17H24.1353H24.1006H24.0659H24.0313H23.9966H23.962H23.9273H23.8926H23.8579H23.8233H23.7886H23.754H23.7193H23.6846H23.6499H23.6153H23.5806H23.5459H23.5113H23.4766H23.442H23.4073H23.3726H23.3379H23.3033H23.2686H23.2339H23.1993H23.1646H23.1299H23.0953H23.0606H23.0259H22.9913H22.9566H22.9219H22.8873H22.8526H22.8179H22.7833H22.7486H22.7139H22.6793H22.6446H22.6099H22.5753H22.5406H22.5059H22.4713H22.4366H22.4019H22.3673H22.3326H22.2979H22.2633H22.2286H22.1939H22.1593H22.1246H22.0899H22.0553H22.0206H21.9859H21.9513H21.9166H21.8819H21.8473H21.8126H21.7779H21.7432H21.6685V5.28882C21.6685 5.03691 21.6943 4.79109 21.7432 4.55375C21.7538 4.50292 21.7653 4.45253 21.7779 4.40254C21.7887 4.35976 21.8003 4.3173 21.8126 4.27516C21.8236 4.23752 21.8351 4.20013 21.8473 4.16301C21.8584 4.12909 21.8698 4.09534 21.8819 4.06188C21.8931 4.03084 21.9046 3.99997 21.9166 3.96934C21.9278 3.94073 21.9393 3.91226 21.9513 3.88402C21.9625 3.85736 21.9741 3.83083 21.9859 3.80449C21.9972 3.77948 22.0088 3.75465 22.0206 3.72995C22.0319 3.70639 22.0435 3.68299 22.0553 3.65971C22.0666 3.63733 22.0782 3.61512 22.0899 3.593C22.1013 3.57168 22.1128 3.55051 22.1246 3.52945C22.136 3.50903 22.1475 3.48878 22.1593 3.46861C22.1707 3.44906 22.1822 3.42959 22.1939 3.41029C22.2053 3.39157 22.2169 3.37299 22.2286 3.3545C22.24 3.33659 22.2516 3.31885 22.2633 3.30117C22.2747 3.28386 22.2862 3.26661 22.2979 3.2495C22.3094 3.23275 22.3208 3.21599 22.3326 3.19943C22.344 3.18339 22.3556 3.16755 22.3673 3.15172C22.3787 3.13614 22.3903 3.12068 22.4019 3.10531C22.4134 3.09016 22.4249 3.07496 22.4366 3.06002C22.448 3.04548 22.4597 3.03117 22.4713 3.01681C22.4827 3.00265 22.4943 2.9886 22.5059 2.97464C22.5174 2.96085 22.5289 2.94706 22.5406 2.93345C22.552 2.92018 22.5637 2.90714 22.5753 2.89404C22.5868 2.88106 22.5982 2.86805 22.6099 2.85525C22.6214 2.8427 22.633 2.83027 22.6446 2.81786C22.6561 2.80563 22.6676 2.79349 22.6793 2.7814C22.6908 2.76949 22.7023 2.75758 22.7139 2.74581C22.7254 2.73424 22.737 2.72285 22.7486 2.71145C22.7601 2.70012 22.7716 2.68866 22.7833 2.6775C22.7947 2.66657 22.8064 2.6559 22.8179 2.64511C22.8295 2.63438 22.841 2.62362 22.8526 2.61303C22.8641 2.60262 22.8757 2.59241 22.8873 2.58217C22.8988 2.57198 22.9103 2.5618 22.9219 2.55176C22.9334 2.54187 22.945 2.53212 22.9566 2.52237C22.9681 2.51271 22.9796 2.50307 22.9913 2.49355C23.0028 2.48412 23.0143 2.4748 23.0259 2.46555L23.0606 2.43817L23.0953 2.41152C23.1068 2.40278 23.1183 2.3941 23.1299 2.3855C23.1414 2.37699 23.153 2.36851 23.1646 2.36012L23.1993 2.33539C23.2108 2.32729 23.2223 2.31924 23.2339 2.31128L23.2686 2.28771L23.3033 2.26478C23.3148 2.25725 23.3263 2.24975 23.3379 2.24237L23.3726 2.22062C23.3842 2.21344 23.3957 2.20625 23.4073 2.19922C23.4188 2.19224 23.4304 2.18546 23.442 2.17862C23.4535 2.17178 23.465 2.16489 23.4766 2.1582C23.4881 2.15159 23.4997 2.14522 23.5113 2.13873C23.5228 2.13224 23.5343 2.12563 23.5459 2.11929C23.5574 2.11303 23.5691 2.10697 23.5806 2.10082C23.5922 2.09468 23.6037 2.08851 23.6153 2.08248C23.6268 2.07651 23.6384 2.07071 23.6499 2.06488C23.6615 2.05908 23.673 2.05326 23.6846 2.04758L23.7193 2.03076C23.7308 2.02525 23.7424 2.01988 23.754 2.01449C23.7655 2.00912 23.777 2.00367 23.7886 1.99842C23.8001 1.99323 23.8117 1.98827 23.8233 1.98319C23.8348 1.97812 23.8463 1.97295 23.8579 1.96799C23.8694 1.96309 23.8811 1.95841 23.8926 1.95363C23.9041 1.94887 23.9157 1.94405 23.9273 1.93941L23.962 1.9257L23.9966 1.91246C24.0082 1.90808 24.0197 1.90364 24.0313 1.8994C24.0428 1.89519 24.0544 1.89123 24.0659 1.88714C24.0775 1.88304 24.089 1.87886 24.1006 1.87488C24.1121 1.87093 24.1237 1.86721 24.1353 1.86337L24.17 1.85209C24.1815 1.8484 24.193 1.84468 24.2046 1.8411C24.2161 1.83755 24.2277 1.83421 24.2393 1.83077C24.2508 1.82731 24.2624 1.82374 24.274 1.82042C24.2855 1.81713 24.2971 1.81407 24.3086 1.8109C24.3202 1.80773 24.3317 1.80452 24.3433 1.80147L24.3779 1.79247C24.3895 1.78955 24.4011 1.78678 24.4126 1.78399C24.4242 1.78119 24.4357 1.77819 24.4473 1.77551C24.4588 1.77285 24.4704 1.77043 24.482 1.76786L24.5166 1.76028L24.5513 1.75309C24.5628 1.75079 24.5744 1.74862 24.5859 1.74643C24.5975 1.74421 24.609 1.74184 24.6206 1.73974C24.6321 1.73763 24.6438 1.73584 24.6553 1.73388L24.69 1.72811C24.7015 1.72627 24.7131 1.72436 24.7246 1.72263C24.7362 1.7209 24.7477 1.71937 24.7593 1.71776C24.7709 1.71614 24.7824 1.71438 24.794 1.71288C24.8055 1.71138 24.8171 1.71006 24.8286 1.70867L24.8633 1.70469C24.8749 1.70342 24.8864 1.70201 24.898 1.70085C24.9095 1.6997 24.9211 1.69881 24.9326 1.69777L24.9673 1.69468L25.002 1.69206C25.0135 1.69122 25.0251 1.69056 25.0366 1.68984C25.0482 1.68914 25.0597 1.68825 25.0713 1.68764C25.0828 1.68704 25.0944 1.68669 25.106 1.6862L25.1406 1.6849C25.1522 1.68453 25.1637 1.68404 25.1753 1.68378C25.1868 1.68352 25.1984 1.68349 25.21 1.68332C25.2215 1.68314 25.2331 1.68294 25.2446 1.68288L25.2533 1.68277H25.2793H25.314H25.3486H25.3833H25.418H25.4526H25.4873H25.522H25.5567H25.5913H25.626H25.6606H25.6953H25.73H25.7646H25.7993H25.834H25.8686H25.9033H25.938H25.9726H26.0073H26.042H26.0767H26.1113H26.146H26.1806H26.2153H26.25H26.2847H26.3193H26.354H26.3886H26.4233H26.458H26.4926H26.5273H26.562H26.5967H26.6313H26.666H26.7006H26.7353H26.77H26.8047H26.8393H26.874H26.9087H26.9433H26.978H27.0127H27.0473H27.082H27.1167H27.1513H27.186H27.2206H27.2553H27.29H27.3247H27.3593H27.394H27.4287H27.4633H27.498H27.5327H27.5673H27.602H27.6367H27.6713H27.706H27.7407H27.7753H27.81H27.8447H27.8793H27.914H27.9487H27.9833H28.018H28.0527H28.0873H28.122H28.1567H28.1914H28.226H28.2607H28.2953H28.33H28.3647H28.3993H28.434H28.4687H28.5033H28.538H28.5727H28.6073H28.642H28.6767H28.7114H28.746H28.7807H28.8153H28.85H28.8847H28.9194H28.954H28.9887H29.0233H29.058H29.0927H29.1274H29.162H29.1967H29.2314H29.266H29.3007H29.3353H29.37H29.4047H29.4394H29.474H29.5087H29.5434H29.578H29.6127H29.6474H29.682H29.7167H29.7514H29.786H29.8207H29.8554H29.89H29.9247H29.9594H29.994H30.0287H30.0634H30.0981H30.1327H30.1674H30.202H30.2367H30.2714H30.3061H30.3407H30.3754H30.41H30.4447H30.4794H30.514V1.68274Z" fill="url(#paint0_linear)"/>
<path fill-rule="evenodd" clip-rule="evenodd" d="M1.86986 14.2297C1.84507 14.2178 1.8203 14.2059 1.79553 14.1939V5.28879C1.79553 5.0376 1.82116 4.79241 1.86986 4.55571C1.88032 4.50488 1.89193 4.45452 1.90449 4.4045C1.91523 4.36167 1.92681 4.31918 1.93908 4.27698C1.95003 4.23936 1.96158 4.20204 1.97367 4.16494C1.98477 4.13099 1.99623 4.09718 2.0083 4.06367C2.01947 4.03266 2.03091 4.00182 2.04289 3.97122C2.05407 3.9426 2.06562 3.91407 2.07751 3.8858C2.08875 3.85915 2.10027 3.83267 2.11211 3.80636C2.12337 3.78136 2.13492 3.75655 2.1467 3.73186C2.15797 3.70826 2.16957 3.68484 2.18133 3.66153C2.19262 3.63915 2.20417 3.61694 2.21592 3.59484C2.22724 3.57352 2.23879 3.55235 2.25051 3.5313C2.26186 3.5109 2.27339 3.49062 2.28514 3.47049C2.29652 3.45093 2.30798 3.43143 2.31973 3.41211C2.33111 3.39341 2.34266 3.37487 2.35435 3.35641C2.36568 3.33852 2.37731 3.32075 2.38895 3.30307C2.40036 3.28576 2.41185 3.26851 2.42354 3.25141C2.43504 3.23462 2.44641 3.21786 2.45817 3.20128C2.46952 3.18527 2.48115 3.16946 2.49276 3.15362C2.5042 3.13805 2.51572 3.12259 2.52738 3.10721C2.53885 3.0921 2.55028 3.07687 2.56198 3.06192C2.57336 3.04741 2.58499 3.03314 2.59657 3.0188C2.60801 3.00464 2.61953 2.99053 2.63119 2.97654C2.64266 2.96278 2.65412 2.94905 2.66579 2.93547C2.6772 2.92217 2.6888 2.9091 2.70041 2.89598C2.71188 2.88297 2.72334 2.86999 2.73501 2.85718C2.74641 2.84463 2.75802 2.83226 2.7696 2.81988C2.78106 2.80762 2.79259 2.79548 2.80422 2.78339C2.81569 2.77148 2.82718 2.75957 2.83882 2.7478C2.85025 2.73623 2.86186 2.72484 2.87344 2.71344C2.88496 2.70211 2.89637 2.69068 2.90803 2.67952C2.91944 2.66859 2.93108 2.65791 2.94263 2.64713C2.95415 2.63637 2.96559 2.62558 2.97725 2.61499C2.98869 2.60461 3.00029 2.59443 3.01184 2.58419C3.02337 2.574 3.03483 2.56379 3.04647 2.55375C3.05793 2.54386 3.06948 2.53414 3.08106 2.52439C3.09253 2.51473 3.10405 2.50506 3.11566 2.49554C3.12712 2.48614 3.1387 2.47682 3.15028 2.46754C3.16177 2.45833 3.17327 2.44922 3.18487 2.44016C3.19634 2.43119 3.20792 2.42233 3.2195 2.41351C3.23099 2.40477 3.24251 2.39606 3.25409 2.38746L3.28868 2.36213C3.30018 2.3538 3.3117 2.34552 3.32331 2.33733C3.33477 2.32922 3.34632 2.3212 3.3579 2.31324C3.36939 2.30531 3.38092 2.29743 3.3925 2.28965C3.40399 2.28194 3.41554 2.27436 3.42712 2.26677C3.43861 2.25924 3.4501 2.25166 3.46171 2.24424C3.47318 2.23692 3.48476 2.22976 3.49634 2.22255C3.50786 2.21537 3.51932 2.2081 3.53093 2.20106C3.54237 2.19411 3.55397 2.18736 3.56552 2.18052C3.57707 2.17369 3.58851 2.16674 3.60015 2.16001C3.61158 2.15341 3.62322 2.14709 3.63474 2.1406C3.64629 2.13411 3.65776 2.12754 3.66936 2.12116C3.68083 2.11487 3.69241 2.10881 3.70396 2.10267C3.71548 2.09653 3.72697 2.09035 3.73855 2.08432C3.75005 2.07835 3.7616 2.0725 3.77318 2.06664L3.80777 2.04939C3.81929 2.04371 3.83081 2.03803 3.84239 2.03249C3.85389 2.02698 3.86544 2.02164 3.87699 2.01625C3.88854 2.01086 3.89997 2.00535 3.91158 2.0001C3.92304 1.99488 3.93465 1.98997 3.9462 1.98489C3.95773 1.97982 3.96922 1.97465 3.9808 1.96969C3.99229 1.96479 4.00387 1.96006 4.01542 1.95527L4.05001 1.94108L4.08461 1.92729L4.11923 1.91408C4.13078 1.90969 4.14222 1.90517 4.15383 1.9009C4.16529 1.89669 4.17693 1.89276 4.18845 1.88867C4.19997 1.88457 4.21146 1.88042 4.22304 1.87644L4.25764 1.86481L4.29226 1.85353C4.30378 1.84984 4.31528 1.84606 4.32685 1.84248C4.33832 1.83894 4.34993 1.83556 4.36145 1.83213C4.373 1.82867 4.38449 1.82515 4.39607 1.8218C4.40756 1.81849 4.41912 1.8154 4.43067 1.8122L4.46529 1.80276C4.47681 1.79971 4.4883 1.79659 4.49988 1.79365C4.51138 1.79071 4.52296 1.78802 4.53448 1.7852C4.546 1.78237 4.55752 1.77943 4.5691 1.77672C4.58059 1.77403 4.59217 1.77153 4.60369 1.76896L4.63832 1.7614C4.64984 1.75892 4.66133 1.75641 4.67291 1.75407C4.6844 1.75177 4.69598 1.74963 4.70751 1.74741C4.71906 1.74519 4.73055 1.74288 4.74213 1.74078C4.75365 1.73867 4.76517 1.73677 4.77672 1.73478L4.81135 1.72901C4.82287 1.72716 4.83436 1.72517 4.84594 1.72341C4.85743 1.72165 4.86901 1.72018 4.88053 1.71854C4.89206 1.71692 4.90358 1.71519 4.91516 1.71366L4.94975 1.70931L4.98437 1.70535C4.99592 1.70406 5.00739 1.70256 5.01897 1.70137C5.03046 1.70019 5.04204 1.69933 5.05356 1.69826L5.08819 1.6952C5.09971 1.69422 5.11123 1.69327 5.12278 1.69243C5.1343 1.69159 5.14585 1.69093 5.1574 1.69021C5.16895 1.68949 5.18045 1.68865 5.192 1.68802C5.20349 1.68738 5.21504 1.68695 5.22659 1.68643L5.26121 1.6851C5.27274 1.6847 5.28423 1.68409 5.29581 1.68381C5.3073 1.68352 5.31888 1.68355 5.3304 1.68337C5.34192 1.6832 5.35347 1.683 5.36502 1.68294L5.3804 1.68274H5.39962H5.43424H5.46884H5.50343H5.53805H5.57265H5.60727H5.64186H5.67646H5.71108H5.74568H5.7803H5.81489H5.84949H5.88411H5.9187H5.95333H5.98792H6.02251H6.05714H6.09173H6.12635H6.16095H6.19554H6.23017H6.26476H6.29938H6.33398H6.36857H6.40319H6.43779H6.47241H6.50701H6.5416H6.57622H6.61082H6.64541H6.68003H6.71463H6.74925H6.78385H6.81844H6.85306H6.88766H6.92228H6.95687H6.99147H7.02609H7.06068H7.09531H7.1299H7.1645H7.19912H7.23371H7.26834H7.30293H7.33752H7.37215H7.40674H7.44134H7.47596H7.51055H7.54518H7.57977H7.61439H7.64899H7.68358H7.7182H7.7528H7.78739H7.82201H7.85661H7.89123H7.92583H7.96042H7.99504H8.02964H8.06426H8.09885H8.13345H8.16807H8.20267H8.23729H8.27188H8.30648H8.3411H8.37569H8.41029H8.44491H8.47951H8.51413H8.54872H8.58335H8.61794H8.65253H8.68716H8.72175H8.75637H8.79097H8.82556H8.86019H8.89478H8.92937H8.964H8.99859H9.03321H9.06781H9.10243H9.13702H9.17162H9.20624H9.24084H9.27543H9.31005H9.34465H9.37927H9.41386H9.44846H9.48308H9.51768H9.55227H9.58689H9.62149H9.65611H9.6907H9.72533H9.75992H9.79452H9.82914H9.86373H9.89833H9.93295H9.96754H10.0022H10.0368H10.0714H10.106H10.1406H10.1752H10.2098H10.2444H10.279H10.3136H10.3482H10.3828H10.4174H10.452H10.4866H10.5212H10.5558H10.5904H10.6251H10.6544V19.7116C10.6544 19.8685 10.6444 20.023 10.6251 20.1745C10.6158 20.2475 10.604 20.3197 10.5904 20.3912C10.5801 20.4456 10.5686 20.4996 10.5558 20.5532C10.5451 20.5982 10.5336 20.643 10.5212 20.6874C10.5103 20.7264 10.4988 20.7651 10.4866 20.8035C10.4756 20.8383 10.464 20.8728 10.452 20.9071C10.4409 20.9389 10.4294 20.9705 10.4174 21.0018C10.4062 21.0311 10.3947 21.0602 10.3828 21.0891C10.3716 21.1163 10.3601 21.1434 10.3482 21.1702C10.337 21.1957 10.3254 21.221 10.3136 21.2463C10.3023 21.2703 10.2908 21.2941 10.279 21.3179C10.2677 21.3407 10.2562 21.3633 10.2444 21.3858C10.2331 21.4075 10.2215 21.429 10.2098 21.4504C10.1984 21.4711 10.187 21.4918 10.1752 21.5122C10.1638 21.5319 10.1523 21.5516 10.1406 21.5711C10.1293 21.5899 10.1176 21.6086 10.106 21.6272C10.0946 21.6454 10.083 21.6635 10.0714 21.6815C10.0599 21.699 10.0485 21.7166 10.0368 21.7339C10.0254 21.7507 10.0138 21.7674 10.0022 21.784C9.99079 21.8003 9.97921 21.8164 9.96754 21.8324C9.95611 21.8482 9.94462 21.8639 9.93295 21.8795C9.92154 21.8948 9.90999 21.9099 9.89833 21.9249C9.88692 21.9396 9.87534 21.9541 9.86373 21.9686C9.85227 21.983 9.8408 21.9973 9.82914 22.0114C9.81773 22.0252 9.80612 22.0389 9.79452 22.0525C9.78308 22.066 9.77156 22.0793 9.75992 22.0926C9.74843 22.1057 9.73699 22.1188 9.72533 22.1317C9.71392 22.1444 9.70228 22.1568 9.6907 22.1693C9.67921 22.1816 9.66778 22.1941 9.65611 22.2063C9.64467 22.2182 9.63309 22.23 9.62149 22.2418C9.61002 22.2535 9.59853 22.2651 9.58689 22.2767C9.57543 22.2881 9.56391 22.2994 9.55227 22.3106C9.54083 22.3217 9.52926 22.3326 9.51768 22.3435C9.50618 22.3543 9.49472 22.3651 9.48308 22.3758C9.47165 22.3863 9.46004 22.3965 9.44846 22.4069C9.43694 22.4172 9.42553 22.4276 9.41386 22.4377C9.40246 22.4476 9.39079 22.4573 9.37927 22.4671C9.36775 22.4769 9.35628 22.4867 9.34465 22.4964C9.33321 22.5058 9.3216 22.5151 9.31005 22.5244C9.29853 22.5336 9.28707 22.543 9.27543 22.5522C9.264 22.5612 9.25239 22.5699 9.24084 22.5788C9.22931 22.5876 9.21788 22.5965 9.20624 22.6052C9.19481 22.6138 9.18317 22.6221 9.17162 22.6305C9.1601 22.6389 9.14866 22.6474 9.13702 22.6557C9.12559 22.6638 9.11398 22.6718 9.10243 22.6798C9.09088 22.6878 9.07944 22.6959 9.06781 22.7038C9.05637 22.7115 9.04476 22.719 9.03321 22.7267C9.02166 22.7343 9.01023 22.742 8.99859 22.7495C8.98715 22.7569 8.97552 22.764 8.964 22.7712C8.95248 22.7784 8.94101 22.7858 8.92937 22.7929C8.91791 22.7999 8.9063 22.8067 8.89478 22.8136C8.88326 22.8204 8.87179 22.8274 8.86019 22.8341C8.84869 22.8408 8.83714 22.8473 8.82556 22.8538C8.81407 22.8604 8.80255 22.8669 8.79097 22.8732C8.77947 22.8796 8.76795 22.8859 8.75637 22.8921L8.72175 22.9104C8.71023 22.9165 8.69874 22.9225 8.68716 22.9284C8.67566 22.9343 8.66411 22.9399 8.65253 22.9457C8.64101 22.9514 8.62955 22.9573 8.61794 22.9629C8.60648 22.9684 8.59487 22.9737 8.58335 22.9791C8.57179 22.9845 8.56033 22.99 8.54872 22.9953C8.53726 23.0006 8.52565 23.0056 8.51413 23.0108L8.47951 23.026L8.44491 23.0407C8.43342 23.0455 8.42184 23.0502 8.41029 23.0549C8.39877 23.0596 8.38727 23.0644 8.37569 23.069C8.36423 23.0735 8.35265 23.0777 8.3411 23.0821C8.32955 23.0866 8.31809 23.0911 8.30648 23.0954C8.29498 23.0996 8.28343 23.1037 8.27188 23.1078L8.23729 23.1201L8.20267 23.132C8.19117 23.1359 8.17959 23.1395 8.16807 23.1433C8.15652 23.147 8.14506 23.1509 8.13345 23.1545C8.12198 23.1582 8.11038 23.1615 8.09885 23.165L8.06426 23.1753L8.02964 23.1852C8.01814 23.1884 8.00659 23.1915 7.99504 23.1946C7.98349 23.1977 7.972 23.201 7.96042 23.204C7.94896 23.2069 7.93732 23.2096 7.92583 23.2124C7.9143 23.2153 7.90278 23.2182 7.89123 23.2209L7.85661 23.2289L7.82201 23.2365C7.81046 23.239 7.799 23.2417 7.78739 23.2441C7.7759 23.2464 7.76432 23.2485 7.7528 23.2507C7.74128 23.253 7.72975 23.2552 7.7182 23.2574L7.68358 23.2636C7.67209 23.2657 7.66054 23.2675 7.64899 23.2694C7.63744 23.2713 7.62594 23.2734 7.61439 23.2751C7.6029 23.2769 7.59132 23.2784 7.57977 23.2801L7.54518 23.285C7.53365 23.2865 7.52213 23.2881 7.51055 23.2896C7.49906 23.291 7.48748 23.2922 7.47596 23.2936C7.46441 23.2949 7.45291 23.2963 7.44134 23.2975C7.42984 23.2987 7.41829 23.2998 7.40674 23.3009L7.37215 23.304C7.3606 23.3049 7.3491 23.3062 7.33752 23.307C7.32603 23.3079 7.31445 23.3085 7.30293 23.3092L7.26834 23.3114L7.23371 23.3133C7.22222 23.3138 7.21064 23.3141 7.19912 23.3146C7.18757 23.315 7.17605 23.3156 7.1645 23.3159C7.153 23.3162 7.14142 23.3163 7.1299 23.3166L7.09531 23.317C7.08462 23.3171 7.07396 23.3174 7.06321 23.3174H7.06068H7.02609H6.99147H6.95687H6.92228H6.88766H6.85306H6.81844H6.78385H6.74925H6.71463H6.68003H6.64541H6.61082H6.57622H6.5416H6.50701H6.47241H6.43779H6.40319H6.36857H6.33398H6.29938H6.26476H6.23017H6.19554H6.16095H6.12635H6.09173H6.05714H6.02251H5.98792H5.95333H5.9187H5.88411H5.84949H5.81489H5.7803H5.74568H5.71108H5.67646H5.64186H5.60727H5.57265H5.53805H5.50343H5.46884H5.43424H5.39962H5.36502H5.3304H5.29581H5.26121H5.22659H5.192H5.1574H5.12278H5.08819H5.05356H5.01897H4.98437H4.94975H4.91516H4.88053H4.84594H4.81135H4.77672H4.74213H4.70751H4.67291H4.63832H4.60369H4.5691H4.53448H4.49988H4.46529H4.43067H4.39607H4.36145H4.32685H4.29226H4.25764H4.22304H4.18845H4.15383H4.11923H4.08461H4.05001H4.01542H3.9808H3.9462H3.91158H3.87699H3.84239H3.80777H3.77318H3.73855H3.70396H3.66936H3.63474H3.60015H3.56552H3.53093H3.49634H3.46171H3.42712H3.3925H3.3579H3.32331H3.28868H3.25409H3.2195H3.18487H3.15028H3.11566H3.08106H3.04647H3.01184H2.97725H2.94263H2.90803H2.87344H2.83882H2.80422H2.7696H2.73501H2.70041H2.66579H2.63119H2.59657H2.56198H2.52738H2.49276H2.45817H2.42354H2.38895H2.35435H2.31973H2.28514H2.25051H2.21592H2.18133H2.1467H2.11211H2.07751H2.04289H2.0083H1.97367H1.93908H1.90449H1.86986H1.79553V15.7184C1.79553 15.7184 1.8211 15.7255 1.86986 15.7378L1.90449 15.7465L1.93908 15.755L1.97367 15.7633L2.0083 15.7715L2.04289 15.7796L2.07751 15.7876L2.11211 15.7954L2.1467 15.8032L2.18133 15.8108L2.21592 15.8183L2.25051 15.8257L2.28514 15.833L2.31973 15.8403L2.35435 15.8474L2.38895 15.8544L2.42354 15.8614L2.45817 15.8682L2.49276 15.875L2.52738 15.8817L2.56198 15.8883L2.59657 15.8948L2.63119 15.9012L2.66579 15.9076L2.70041 15.9138L2.73501 15.92L2.7696 15.9261L2.80422 15.9322L2.83882 15.9381L2.87344 15.9439L2.90803 15.9497L2.94263 15.9554L2.97725 15.961L3.01184 15.9666L3.04647 15.972L3.08106 15.9774L3.11566 15.9828L3.15028 15.988L3.18487 15.9932L3.2195 15.9982L3.25409 16.0033L3.28868 16.0082L3.32331 16.0131L3.3579 16.0178L3.3925 16.0226L3.42712 16.0272L3.46171 16.0317L3.49634 16.0362L3.53093 16.0406L3.56552 16.045L3.60015 16.0492L3.63474 16.0534L3.66936 16.0575L3.70396 16.0616L3.73855 16.0655L3.77318 16.0694L3.80777 16.0732L3.84239 16.0769L3.87699 16.0806L3.91158 16.0842L3.9462 16.0877L3.9808 16.0911L4.01542 16.0945L4.05001 16.0978L4.08461 16.101L4.11923 16.1042L4.15383 16.1072L4.18845 16.1102L4.22304 16.1131L4.25764 16.1159L4.29226 16.1187L4.32685 16.1214L4.36145 16.124L4.39607 16.1265L4.43067 16.129L4.46529 16.1314L4.49988 16.1336L4.53448 16.1359L4.5691 16.1381L4.60369 16.1401L4.63832 16.1421L4.67291 16.144L4.70751 16.1459L4.74213 16.1477L4.77672 16.1493L4.81135 16.1509L4.84594 16.1524L4.88053 16.1539L4.91516 16.1553L4.94975 16.1565L4.98437 16.1578L5.01897 16.1589L5.05356 16.1599L5.08819 16.161L5.12278 16.1618L5.1574 16.1626L5.192 16.1634L5.22659 16.164L5.26121 16.1646L5.29581 16.1651L5.3304 16.1655L5.36502 16.1658L5.39962 16.1661L5.43424 16.1662L5.46884 16.1663L5.4822 16.1663L5.50343 16.1662L5.53805 16.166L5.57265 16.1658L5.60727 16.1656L5.64186 16.1654L5.67646 16.1648L5.71108 16.1641L5.74568 16.1635L5.7803 16.1629L5.81489 16.162L5.84949 16.1609L5.88411 16.1598L5.9187 16.1588L5.95333 16.1576L5.98792 16.1561L6.02251 16.1546L6.05714 16.153L6.09173 16.1515L6.12635 16.1495L6.16095 16.1475L6.19554 16.1455L6.23017 16.1435L6.26476 16.1412L6.29938 16.1387L6.33398 16.1362L6.36857 16.1337L6.40319 16.1309L6.43779 16.1279L6.47241 16.1249L6.50701 16.1219L6.5416 16.1186L6.57622 16.1151L6.61082 16.1116L6.64541 16.108L6.68003 16.1042L6.71463 16.1001L6.74925 16.096L6.78385 16.0919L6.81844 16.0874L6.85306 16.0828L6.88766 16.0781L6.92228 16.0734C6.93394 16.0717 6.94529 16.0699 6.95687 16.0682L6.99147 16.0629L7.02609 16.0577L7.06068 16.0522C7.07232 16.0503 7.08373 16.0483 7.09531 16.0463L7.1299 16.0405C7.14137 16.0385 7.15312 16.0367 7.1645 16.0346C7.17616 16.0326 7.18751 16.0303 7.19912 16.0282L7.23371 16.0217L7.26834 16.0152L7.30293 16.0084C7.31457 16.0061 7.32597 16.0036 7.33752 16.0013L7.37215 15.9941L7.40674 15.9868C7.41844 15.9843 7.42976 15.9816 7.44134 15.979L7.47596 15.9712C7.48742 15.9685 7.49917 15.966 7.51055 15.9634C7.52225 15.9606 7.5336 15.9577 7.54518 15.9549L7.57977 15.9463C7.59126 15.9435 7.60299 15.9407 7.61439 15.9378C7.62603 15.9348 7.63747 15.9317 7.64899 15.9287L7.68358 15.9194C7.6951 15.9163 7.7068 15.9132 7.7182 15.9101C7.72984 15.9069 7.74128 15.9035 7.7528 15.9002L7.78739 15.8902C7.79891 15.8868 7.81061 15.8835 7.82201 15.8801L7.85661 15.8694L7.89123 15.8585C7.90273 15.8549 7.91445 15.8513 7.92583 15.8476L7.96042 15.836L7.99504 15.8243C8.00654 15.8203 8.01829 15.8165 8.02964 15.8125C8.04133 15.8084 8.05268 15.8041 8.06426 15.7999L8.09885 15.7872C8.11038 15.7829 8.12204 15.7787 8.13345 15.7744C8.14514 15.7699 8.15652 15.7653 8.16807 15.7608C8.17962 15.7563 8.19126 15.7518 8.20267 15.7472L8.23729 15.733L8.27188 15.7184C8.28338 15.7136 8.29513 15.7088 8.30648 15.7039C8.3182 15.6988 8.32952 15.6934 8.3411 15.6882L8.37569 15.6726L8.41029 15.6565C8.42193 15.651 8.43342 15.6453 8.44491 15.6397C8.45643 15.6342 8.46816 15.6286 8.47951 15.6229C8.49123 15.617 8.50258 15.611 8.51413 15.605C8.52568 15.5991 8.53734 15.5932 8.54872 15.5872C8.56042 15.581 8.57182 15.5747 8.58335 15.5684C8.59495 15.5621 8.6065 15.5558 8.61794 15.5493C8.62958 15.5428 8.6411 15.5363 8.65253 15.5296C8.6642 15.5229 8.67569 15.5161 8.68716 15.5093C8.69874 15.5024 8.71034 15.4955 8.72175 15.4885C8.73345 15.4813 8.74488 15.474 8.75637 15.4668C8.76795 15.4595 8.77959 15.4522 8.79097 15.4448C8.80266 15.4371 8.81407 15.4293 8.82556 15.4216C8.83714 15.4138 8.84881 15.406 8.86019 15.3981C8.87191 15.39 8.88329 15.3817 8.89478 15.3735C8.90636 15.3652 8.91802 15.3568 8.92937 15.3484C8.9411 15.3397 8.95253 15.3309 8.964 15.3221C8.97563 15.3132 8.98721 15.3042 8.99859 15.2952C9.01026 15.286 9.02178 15.2766 9.03321 15.2672C9.04488 15.2576 9.0564 15.2479 9.06781 15.2381C9.07944 15.2282 9.09108 15.2183 9.10243 15.2083C9.11418 15.1979 9.12556 15.1873 9.13702 15.1768C9.14863 15.1661 9.1603 15.1555 9.17162 15.1446C9.18337 15.1334 9.19484 15.1221 9.20624 15.1107C9.21794 15.0991 9.22946 15.0873 9.24084 15.0755C9.25247 15.0634 9.26414 15.0514 9.27543 15.0392C9.28721 15.0264 9.29862 15.0135 9.31005 15.0006C9.3218 14.9873 9.3333 14.9739 9.34465 14.9604C9.35634 14.9465 9.36798 14.9326 9.37927 14.9185C9.39099 14.9039 9.40257 14.8893 9.41386 14.8745C9.42567 14.859 9.43711 14.8434 9.44846 14.8277C9.46027 14.8113 9.47176 14.7949 9.48308 14.7783C9.49489 14.7611 9.50641 14.7437 9.51768 14.7262C9.52949 14.7078 9.54104 14.6894 9.55227 14.6707C9.56411 14.651 9.57569 14.6313 9.58689 14.6113C9.59879 14.5902 9.61031 14.5689 9.62149 14.5474C9.63344 14.5245 9.64496 14.5014 9.65611 14.4781C9.66812 14.453 9.67961 14.4278 9.6907 14.4024C9.70274 14.3747 9.71432 14.3469 9.72533 14.3189C9.73745 14.2879 9.74903 14.2567 9.75992 14.2252C9.77228 14.1895 9.78374 14.1534 9.79452 14.1171C9.8071 14.0745 9.81862 14.0316 9.82914 13.9882C9.84218 13.9344 9.85376 13.88 9.86373 13.825C9.87856 13.7431 9.88999 13.6599 9.89833 13.5757C9.90996 13.4581 9.91562 13.3385 9.91562 13.2169V9.03329H9.89833H9.86373H9.82914H9.79452H9.75992H9.72533H9.6907H9.65611H9.62149H9.58689H9.55227H9.51768H9.48308H9.44846H9.41386H9.37927H9.34465H9.31005H9.27543H9.24084H9.20624H9.17162H9.13702H9.10243H9.06781H9.03321H8.99859H8.964H8.92937H8.89478H8.86019H8.82556H8.79097H8.75637H8.72175H8.68716H8.65253H8.61794H8.58335H8.54872H8.51413H8.47951H8.44491H8.41029H8.37569H8.3411H8.30648H8.27188H8.23729H8.20267H8.16807H8.13345H8.09885H8.06426H8.02964H7.99504H7.96042H7.92583H7.89123H7.85661H7.82201H7.78739H7.7528H7.7182H7.68358H7.64899H7.61439H7.57977H7.54518H7.51055H7.47596H7.44134H7.40674H7.37215H7.33752H7.30293H7.26834H7.23371H7.19912H7.1645H7.1299H7.09531H7.06068H7.02609H6.99147H6.95687H6.92228H6.88766H6.85306H6.82683V13.2169C6.82683 13.2824 6.82398 13.3469 6.81844 13.4101C6.81137 13.4906 6.79979 13.5691 6.78385 13.6454C6.77399 13.6925 6.76244 13.7388 6.74925 13.7842C6.73873 13.8204 6.72724 13.856 6.71463 13.8909C6.70388 13.9207 6.6923 13.95 6.68003 13.9789C6.66909 14.0047 6.65756 14.0301 6.64541 14.0552C6.63435 14.0779 6.62288 14.1005 6.61082 14.1226C6.59973 14.143 6.58812 14.1629 6.57622 14.1827C6.56505 14.2013 6.55352 14.2197 6.5416 14.2378C6.53039 14.2547 6.51884 14.2715 6.50701 14.288C6.49574 14.3037 6.48428 14.3193 6.47241 14.3346C6.46115 14.3491 6.44957 14.3634 6.43779 14.3775C6.4265 14.3911 6.41498 14.4044 6.40319 14.4176C6.39187 14.4303 6.38035 14.4428 6.36857 14.4551C6.35722 14.467 6.34573 14.4788 6.33398 14.4903C6.32263 14.5015 6.31111 14.5126 6.29938 14.5234C6.28803 14.5339 6.27645 14.5442 6.26476 14.5544C6.25341 14.5643 6.24186 14.5741 6.23017 14.5837C6.21879 14.5931 6.20721 14.6023 6.19554 14.6114C6.18417 14.6202 6.17261 14.6289 6.16095 14.6375C6.14954 14.6459 6.13802 14.6541 6.12635 14.6622C6.11495 14.6701 6.10343 14.6779 6.09173 14.6856C6.08033 14.6931 6.0688 14.7005 6.05714 14.7078C6.04573 14.7149 6.03418 14.7219 6.02251 14.7287C6.01111 14.7354 5.99956 14.742 5.98792 14.7485C5.97651 14.7549 5.96496 14.7611 5.95333 14.7673C5.94189 14.7733 5.93037 14.7793 5.9187 14.7851C5.90727 14.7908 5.89575 14.7964 5.88411 14.802C5.87265 14.8074 5.86115 14.8128 5.84949 14.818C5.83802 14.8231 5.82653 14.8282 5.81489 14.8331C5.80349 14.838 5.79191 14.8427 5.7803 14.8473C5.76886 14.8519 5.75728 14.8564 5.74568 14.8608C5.73421 14.8651 5.72272 14.8693 5.71108 14.8735C5.69962 14.8776 5.68809 14.8816 5.67646 14.8855C5.66502 14.8894 5.65347 14.8931 5.64186 14.8968C5.63043 14.9004 5.61885 14.9038 5.60727 14.9073C5.59581 14.9107 5.58425 14.914 5.57265 14.9172C5.56115 14.9204 5.54966 14.9236 5.53805 14.9266C5.52659 14.9296 5.51504 14.9324 5.50343 14.9352C5.49199 14.938 5.48044 14.9407 5.46884 14.9432C5.45737 14.9458 5.44585 14.9484 5.43424 14.9508C5.42275 14.9532 5.41126 14.9555 5.39962 14.9577C5.38815 14.9599 5.3766 14.962 5.36502 14.964C5.35353 14.966 5.34201 14.9681 5.3304 14.9699L5.29581 14.9752C5.28434 14.9769 5.27279 14.9784 5.26121 14.98C5.24972 14.9815 5.23823 14.983 5.22659 14.9844L5.192 14.9882C5.18053 14.9894 5.16898 14.9904 5.1574 14.9915C5.14588 14.9925 5.13439 14.9936 5.12278 14.9945C5.11131 14.9954 5.09976 14.9962 5.08819 14.9969C5.07669 14.9977 5.06514 14.9983 5.05356 14.9989C5.04204 14.9995 5.03058 15.0001 5.01897 15.0006C5.0075 15.0011 4.99592 15.0013 4.98437 15.0017L4.94975 15.0025C4.93829 15.0027 4.92674 15.0027 4.91516 15.0028L4.90214 15.0029L4.88053 15.0028L4.84594 15.0026L4.81135 15.0021L4.77672 15.0014L4.74213 15.0005L4.70751 14.9994L4.67291 14.9979L4.63832 14.9963L4.60369 14.9946L4.5691 14.9925L4.53448 14.9902L4.49988 14.9878L4.46529 14.9851L4.43067 14.9822L4.39607 14.979L4.36145 14.9757L4.32685 14.9722L4.29226 14.9684L4.25764 14.9644L4.22304 14.9602L4.18845 14.9558L4.15383 14.9513L4.11923 14.9464L4.08461 14.9414L4.05001 14.9362L4.01542 14.9308L3.9808 14.9251L3.9462 14.9193L3.91158 14.9132L3.87699 14.907L3.84239 14.9005L3.80777 14.8939L3.77318 14.8871L3.73855 14.88L3.70396 14.8728L3.66936 14.8653L3.63474 14.8577L3.60015 14.8498L3.56552 14.8419L3.53093 14.8336L3.49634 14.8252L3.46171 14.8166L3.42712 14.8079L3.3925 14.7988L3.3579 14.7896L3.32331 14.7803L3.28868 14.7708L3.25409 14.7611L3.2195 14.7511L3.18487 14.7411L3.15028 14.7307L3.11566 14.7203L3.08106 14.7097L3.04647 14.6988L3.01184 14.6878L2.97725 14.6766L2.94263 14.6653L2.90803 14.6537L2.87344 14.642L2.83882 14.6301L2.80422 14.6181L2.7696 14.6058L2.73501 14.5934L2.70041 14.5809L2.66579 14.5681L2.63119 14.5551L2.59657 14.542L2.56198 14.5288L2.52738 14.5154L2.49276 14.5018L2.45817 14.488L2.42354 14.4741L2.38895 14.46L2.35435 14.4458L2.31973 14.4314L2.28514 14.4168L2.25051 14.402L2.21592 14.3871L2.18133 14.3721L2.1467 14.3569L2.11211 14.3415L2.07751 14.326L2.04289 14.3104L2.0083 14.2945L1.97367 14.2785L1.93908 14.2624L1.90449 14.2461L1.86986 14.2297V14.2297Z" fill="url(#paint1_linear)"/>
<path fill-rule="evenodd" clip-rule="evenodd" d="M11.8065 9.94743C11.7813 9.96791 11.7564 9.98856 11.7322 10.0095V5.28879C11.7322 5.03774 11.7578 4.7927 11.8065 4.55609C11.8169 4.50529 11.8285 4.45495 11.8411 4.40496C11.8518 4.36207 11.8634 4.31952 11.8757 4.27727C11.8866 4.23962 11.8982 4.20224 11.9103 4.16511C11.9214 4.13119 11.9329 4.09744 11.9449 4.06398C11.9561 4.03297 11.9676 4.00211 11.9795 3.9715C11.9907 3.94289 12.0022 3.91442 12.0141 3.88615C12.0254 3.8595 12.0369 3.83302 12.0487 3.80668C12.06 3.78167 12.0716 3.75684 12.0833 3.73215C12.0946 3.70855 12.1062 3.68519 12.1179 3.66188C12.1292 3.63949 12.1408 3.61728 12.1526 3.59516C12.1639 3.57384 12.1754 3.55267 12.1872 3.53161C12.1985 3.51122 12.21 3.49091 12.2218 3.47078C12.2332 3.45122 12.2446 3.43175 12.2564 3.41242C12.2677 3.39376 12.2793 3.37521 12.291 3.35678C12.3023 3.33884 12.3139 3.3211 12.3256 3.30339C12.337 3.28605 12.3485 3.26883 12.3602 3.25173C12.3717 3.23494 12.3831 3.21815 12.3948 3.20159C12.4062 3.18555 12.4178 3.16978 12.4294 3.15397C12.4408 3.13839 12.4524 3.1229 12.464 3.10753C12.4755 3.09238 12.4869 3.07721 12.4986 3.06227C12.51 3.04776 12.5217 3.03345 12.5332 3.01912C12.5447 3.00495 12.5562 2.99085 12.5678 2.97689C12.5793 2.9631 12.5908 2.94937 12.6025 2.93578C12.6139 2.92251 12.6255 2.90942 12.6371 2.89632C12.6485 2.88334 12.66 2.8703 12.6717 2.85747C12.6831 2.84492 12.6947 2.83252 12.7062 2.82014C12.7177 2.80791 12.7292 2.79577 12.7408 2.78368C12.7523 2.77177 12.7638 2.75985 12.7755 2.74809C12.7869 2.73655 12.7985 2.72515 12.8101 2.71376C12.8216 2.70242 12.833 2.691 12.8447 2.67981C12.8561 2.66888 12.8677 2.6582 12.8793 2.64742C12.8908 2.63666 12.9022 2.62587 12.9139 2.61528C12.9253 2.6049 12.9369 2.59469 12.9485 2.58445C12.96 2.57423 12.9715 2.56405 12.9831 2.55401C12.9946 2.54412 13.0061 2.5344 13.0177 2.52465C13.0292 2.51499 13.0407 2.50532 13.0523 2.49578C13.0638 2.48637 13.0753 2.47705 13.0869 2.4678C13.0984 2.45859 13.1099 2.44945 13.1215 2.44039C13.133 2.43145 13.1446 2.42259 13.1561 2.41377C13.1676 2.40503 13.1792 2.39632 13.1907 2.38772C13.2022 2.37918 13.2138 2.37076 13.2254 2.36237C13.2369 2.35406 13.2484 2.34575 13.26 2.33756C13.2714 2.32945 13.283 2.32146 13.2946 2.31347C13.3061 2.30554 13.3176 2.29764 13.3292 2.28985C13.3406 2.28215 13.3522 2.27456 13.3638 2.26697C13.3753 2.25942 13.3868 2.25186 13.3984 2.24445C13.4099 2.23712 13.4214 2.22997 13.433 2.22275C13.4445 2.21557 13.456 2.2083 13.4676 2.20126C13.4791 2.19428 13.4907 2.18753 13.5022 2.1807C13.5138 2.17386 13.5252 2.16688 13.5368 2.16019C13.5483 2.15358 13.5599 2.14724 13.5714 2.14075C13.583 2.13426 13.5944 2.12771 13.606 2.12136C13.6175 2.11507 13.6291 2.10902 13.6406 2.10284C13.6522 2.0967 13.6636 2.09053 13.6753 2.0845L13.7098 2.06682L13.7445 2.04954C13.756 2.04388 13.7675 2.03817 13.7791 2.03263C13.7906 2.02712 13.8021 2.02179 13.8137 2.01639C13.8252 2.01103 13.8367 2.00549 13.8483 2.00024C13.8597 1.99502 13.8714 1.99012 13.8829 1.98504C13.8944 1.97996 13.9059 1.9748 13.9175 1.96984C13.929 1.96493 13.9405 1.96017 13.9521 1.95539L13.9867 1.94119C13.9982 1.93655 14.0097 1.93191 14.0213 1.92738C14.0328 1.92288 14.0444 1.91855 14.0559 1.91417C14.0675 1.90978 14.0789 1.90525 14.0905 1.90098C14.102 1.89677 14.1136 1.89285 14.1252 1.88875C14.1367 1.88466 14.1482 1.8805 14.1597 1.87652C14.1712 1.87254 14.1828 1.86873 14.1944 1.8649L14.229 1.85362C14.2405 1.84993 14.252 1.84615 14.2636 1.84254C14.2751 1.83899 14.2867 1.83565 14.2982 1.83222C14.3097 1.82875 14.3212 1.82521 14.3328 1.82186C14.3443 1.81854 14.3558 1.81546 14.3674 1.81225L14.402 1.80282C14.4135 1.79976 14.425 1.79665 14.4366 1.79371C14.4481 1.79079 14.4597 1.78805 14.4712 1.78523C14.4827 1.7824 14.4943 1.77946 14.5058 1.77675C14.5173 1.77406 14.5289 1.77155 14.5404 1.76899L14.575 1.76143C14.5866 1.75898 14.5981 1.75644 14.6096 1.7541C14.6211 1.75177 14.6327 1.74966 14.6443 1.74744C14.6558 1.74522 14.6673 1.74288 14.6789 1.74078L14.7135 1.73478L14.7481 1.72904C14.7596 1.72716 14.7711 1.72517 14.7827 1.72341C14.7942 1.72165 14.8058 1.72018 14.8173 1.71854C14.8288 1.71692 14.8403 1.71522 14.8519 1.71369L14.8865 1.70933L14.9211 1.70535C14.9327 1.70406 14.9441 1.70256 14.9557 1.70137C14.9672 1.70019 14.9788 1.69933 14.9903 1.69826L15.0249 1.6952C15.0365 1.69422 15.048 1.69327 15.0595 1.69243C15.0711 1.69159 15.0826 1.69093 15.0941 1.69021C15.1057 1.68949 15.1172 1.68865 15.1288 1.68802C15.1403 1.68738 15.1518 1.68695 15.1634 1.68643L15.198 1.6851C15.2095 1.6847 15.221 1.68409 15.2326 1.68381C15.2441 1.68352 15.2557 1.68355 15.2672 1.68337C15.2787 1.6832 15.2903 1.683 15.3018 1.68294L15.3171 1.68274H15.3364H15.371H15.4056H15.4402H15.4748H15.5094H15.5441H15.5787H15.6133H15.6479H15.6825H15.7171H15.7517H15.7863H15.8209H15.8555H15.8901H15.9247H15.9593H15.9939H16.0285H16.0631H16.0978H16.1324H16.167H16.2016H16.2362H16.2708H16.3054H16.34H16.3746H16.4092H16.4439H16.4784H16.5131H16.5477H16.5823H16.6169H16.6515H16.6861H16.7207H16.7553H16.7899H16.8245H16.8591H16.8937H16.9283H16.9629H16.9976H17.0322H17.0668H17.1014H17.136H17.1706H17.2052H17.2398H17.2744H17.309H17.3436H17.3782H17.4129H17.4475H17.4821H17.5167H17.5513H17.5859H17.6205H17.6551H17.6897H17.7243H17.7589H17.7935H17.8281H17.8627H17.8974H17.9319H17.9666H18.0012H18.0358H18.0704H18.105H18.1396H18.1742H18.2088H18.2434H18.278H18.3126H18.3472H18.3818H18.4165H18.4511H18.4857H18.5203H18.5549H18.5895H18.6241H18.6587H18.6933H18.7279H18.7625H18.7971H18.8317H18.8664H18.901H18.9356H18.9702H19.0048H19.0394H19.074H19.1086H19.1432H19.1778H19.2124H19.247H19.2816H19.3162H19.3509H19.3854H19.4201H19.4547H19.4893H19.5239H19.5585H19.5931H19.6277H19.6623H19.6969H19.7315H19.7662H19.8008H19.8354H19.87H19.9046H19.9392H19.9738H20.0084H20.043H20.0776H20.1122H20.1468H20.1814H20.216H20.2506H20.2852H20.3199H20.3545H20.3891H20.4237H20.4583H20.4929H20.5275H20.5621H20.5914V19.7116C20.5914 19.8684 20.5814 20.0228 20.5621 20.1743C20.5528 20.2473 20.5411 20.3194 20.5275 20.3909C20.5172 20.4454 20.5057 20.4994 20.4929 20.5529C20.4821 20.598 20.4707 20.6428 20.4583 20.6872C20.4474 20.7262 20.4358 20.7649 20.4237 20.8033C20.4127 20.8381 20.4011 20.8726 20.3891 20.9069C20.378 20.9387 20.3664 20.9703 20.3545 21.0016C20.3433 21.0309 20.3318 21.0599 20.3199 21.0888C20.3086 21.116 20.2971 21.1431 20.2852 21.17C20.274 21.1955 20.2625 21.2208 20.2506 21.246C20.2394 21.2701 20.2278 21.294 20.216 21.3177C20.2047 21.3405 20.1932 21.3631 20.1814 21.3856C20.1701 21.4073 20.1586 21.4288 20.1468 21.4503C20.1354 21.471 20.124 21.4916 20.1122 21.5121C20.1009 21.5318 20.0893 21.5513 20.0776 21.5708C20.0663 21.5897 20.0547 21.6084 20.043 21.627C20.0316 21.6452 20.0201 21.6633 20.0084 21.6812C19.997 21.6988 19.9855 21.7164 19.9738 21.7337C19.9624 21.7506 19.9508 21.7672 19.9392 21.7838C19.9278 21.8001 19.9162 21.8162 19.9046 21.8322C19.8931 21.848 19.8816 21.8638 19.87 21.8794C19.8586 21.8946 19.847 21.9096 19.8354 21.9246C19.824 21.9393 19.8124 21.9539 19.8008 21.9684C19.7893 21.9828 19.7779 21.9971 19.7662 22.0112C19.7547 22.025 19.7431 22.0387 19.7315 22.0524C19.7201 22.0658 19.7086 22.0791 19.6969 22.0924C19.6854 22.1055 19.674 22.1186 19.6623 22.1315C19.6509 22.1442 19.6393 22.1566 19.6277 22.1691C19.6162 22.1814 19.6048 22.1939 19.5931 22.2061C19.5817 22.2181 19.5701 22.2299 19.5585 22.2416C19.547 22.2533 19.5355 22.2649 19.5239 22.2765C19.5124 22.2879 19.5009 22.2992 19.4893 22.3104C19.4779 22.3215 19.4663 22.3324 19.4547 22.3433C19.4432 22.3541 19.4317 22.365 19.4201 22.3757C19.4086 22.3861 19.397 22.3964 19.3854 22.4067C19.3739 22.417 19.3625 22.4274 19.3509 22.4375C19.3394 22.4475 19.3278 22.4572 19.3162 22.467C19.3047 22.4767 19.2933 22.4866 19.2816 22.4962C19.2702 22.5057 19.2586 22.5149 19.247 22.5242C19.2355 22.5335 19.2241 22.5429 19.2124 22.552C19.201 22.561 19.1894 22.5698 19.1778 22.5786C19.1663 22.5874 19.1548 22.5963 19.1432 22.605C19.1318 22.6136 19.1202 22.622 19.1086 22.6304C19.0971 22.6388 19.0856 22.6473 19.074 22.6556C19.0626 22.6637 19.0509 22.6716 19.0394 22.6796C19.0279 22.6877 19.0164 22.6958 19.0048 22.7036C18.9933 22.7114 18.9817 22.7189 18.9702 22.7265C18.9587 22.7341 18.9472 22.7419 18.9356 22.7494C18.9241 22.7567 18.9125 22.7638 18.901 22.7711C18.8894 22.7783 18.878 22.7856 18.8664 22.7927C18.8549 22.7997 18.8433 22.8065 18.8317 22.8134C18.8202 22.8203 18.8087 22.8272 18.7971 22.834C18.7857 22.8406 18.7741 22.8472 18.7625 22.8537L18.7279 22.8731L18.6933 22.892L18.6587 22.9103C18.6472 22.9163 18.6357 22.9224 18.6241 22.9283C18.6126 22.9341 18.6011 22.9398 18.5895 22.9456C18.578 22.9513 18.5665 22.9572 18.5549 22.9628C18.5434 22.9683 18.5318 22.9736 18.5203 22.979C18.5088 22.9844 18.4973 22.99 18.4857 22.9952C18.4742 23.0005 18.4626 23.0055 18.4511 23.0107L18.4165 23.0258L18.3818 23.0406L18.3472 23.0548C18.3357 23.0595 18.3242 23.0643 18.3126 23.0689C18.3012 23.0734 18.2896 23.0776 18.278 23.0821C18.2665 23.0865 18.255 23.091 18.2434 23.0953C18.2319 23.0995 18.2204 23.1036 18.2088 23.1078L18.1742 23.12L18.1396 23.1319C18.1281 23.1358 18.1165 23.1394 18.105 23.1432C18.0934 23.1469 18.082 23.1509 18.0704 23.1545C18.0589 23.1581 18.0473 23.1614 18.0358 23.1649L18.0012 23.1752L17.9666 23.1851C17.955 23.1883 17.9435 23.1914 17.9319 23.1945C17.9204 23.1976 17.909 23.2009 17.8974 23.2039C17.8859 23.2069 17.8743 23.2095 17.8627 23.2124C17.8512 23.2152 17.8397 23.2181 17.8281 23.2209L17.7935 23.2289L17.7589 23.2364C17.7474 23.2389 17.7359 23.2416 17.7243 23.244C17.7128 23.2464 17.7012 23.2484 17.6897 23.2507L17.6551 23.2573L17.6205 23.2636C17.609 23.2656 17.5974 23.2674 17.5859 23.2694C17.5743 23.2713 17.5628 23.2733 17.5513 23.2751C17.5398 23.2769 17.5282 23.2784 17.5167 23.2801L17.4821 23.285C17.4705 23.2865 17.459 23.2881 17.4475 23.2895C17.436 23.291 17.4244 23.2922 17.4129 23.2935C17.4013 23.2949 17.3898 23.2963 17.3782 23.2975C17.3667 23.2987 17.3552 23.2998 17.3436 23.3008L17.309 23.304C17.2975 23.3049 17.286 23.3061 17.2744 23.307C17.2629 23.3079 17.2514 23.3084 17.2398 23.3092L17.2052 23.3114L17.1706 23.3133C17.1591 23.3138 17.1475 23.3141 17.136 23.3146C17.1244 23.315 17.1129 23.3155 17.1014 23.3159C17.0899 23.3162 17.0783 23.3163 17.0668 23.3165L17.0322 23.317C17.0214 23.3171 17.0107 23.3174 16.9999 23.3174H16.9976H16.9629H16.9283H16.8937H16.8591H16.8245H16.7899H16.7553H16.7207H16.6861H16.6515H16.6169H16.5823H16.5477H16.5131H16.4784H16.4439H16.4092H16.3746H16.34H16.3054H16.2708H16.2362H16.2016H16.167H16.1324H16.0978H16.0631H16.0285H15.9939H15.9593H15.9247H15.8901H15.8555H15.8209H15.7863H15.7517H15.7171H15.6825H15.6479H15.6133H15.5787H15.5441H15.5094H15.4748H15.4402H15.4056H15.371H15.3364H15.3018H15.2672H15.2326H15.198H15.1634H15.1288H15.0941H15.0595H15.0249H14.9903H14.9557H14.9211H14.8865H14.8519H14.8173H14.7827H14.7481H14.7135H14.6789H14.6443H14.6096H14.575H14.5404H14.5058H14.4712H14.4366H14.402H14.3674H14.3328H14.2982H14.2636H14.229H14.1944H14.1597H14.1252H14.0905H14.0559H14.0213H13.9867H13.9521H13.9175H13.8829H13.8483H13.8137H13.7791H13.7445H13.7098H13.6753H13.6406H13.606H13.5714H13.5368H13.5022H13.4676H13.433H13.3984H13.3638H13.3292H13.2946H13.26H13.2254H13.1907H13.1561H13.1215H13.0869H13.0523H13.0177H12.9831H12.9485H12.9139H12.8793H12.8447H12.8101H12.7755H12.7408H12.7062H12.6717H12.6371H12.6025H12.5678H12.5332H12.4986H12.464H12.4294H12.3948H12.3602H12.3256H12.291H12.2564H12.2218H12.1872H12.1526H12.1179H12.0833H12.0487H12.0141H11.9795H11.9449H11.9103H11.8757H11.8411H11.8065H11.7322V14.9921C11.7564 15.013 11.7813 15.0336 11.8065 15.0541C11.8179 15.0634 11.8295 15.0726 11.8411 15.0818C11.8525 15.0908 11.8641 15.0999 11.8757 15.1088C11.8872 15.1177 11.8987 15.1265 11.9103 15.1353C11.9217 15.1438 11.9333 15.1523 11.9449 15.1608C11.9563 15.1691 11.9679 15.1775 11.9795 15.1858C11.991 15.1939 12.0025 15.2021 12.0141 15.2102L12.0487 15.234C12.0602 15.2417 12.0717 15.2494 12.0833 15.2571L12.1179 15.2798C12.1294 15.2872 12.1409 15.2946 12.1526 15.302C12.164 15.3092 12.1756 15.3164 12.1872 15.3235L12.2218 15.3447C12.2333 15.3516 12.2448 15.3585 12.2564 15.3653C12.2678 15.3721 12.2794 15.3787 12.291 15.3854L12.3256 15.4051L12.3602 15.4244L12.3948 15.4432C12.4063 15.4494 12.4178 15.4556 12.4294 15.4617C12.4408 15.4677 12.4524 15.4737 12.464 15.4796L12.4986 15.4973L12.5332 15.5145L12.5678 15.5313C12.5794 15.5369 12.5908 15.5425 12.6025 15.5479L12.6371 15.564L12.6717 15.5799L12.7062 15.5952L12.7408 15.6104L12.7755 15.6252L12.8101 15.6397L12.8447 15.654L12.8793 15.6678L12.9139 15.6815L12.9485 15.6948C12.96 15.6991 12.9715 15.7036 12.9831 15.7079L13.0177 15.7206C13.0292 15.7248 13.0407 15.7291 13.0523 15.7332C13.0638 15.7373 13.0754 15.7413 13.0869 15.7453L13.1215 15.7574L13.1561 15.7691C13.1677 15.7729 13.1791 15.7769 13.1907 15.7807C13.2022 15.7845 13.2138 15.7881 13.2254 15.7918L13.26 15.803L13.2946 15.8136L13.3292 15.8243L13.3638 15.8345L13.3984 15.8447L13.433 15.8545L13.4676 15.8643L13.5022 15.8737L13.5368 15.883L13.5714 15.8921L13.606 15.9009L13.6406 15.9097L13.6753 15.9181L13.7098 15.9265L13.7445 15.9345L13.7791 15.9425L13.8137 15.9502L13.8483 15.9578L13.8829 15.9653L13.9175 15.9724L13.9521 15.9796L13.9867 15.9864L14.0213 15.9932L14.0559 15.9998L14.0905 16.0062L14.1252 16.0125L14.1597 16.0185L14.1944 16.0245L14.229 16.0303L14.2636 16.036L14.2982 16.0416L14.3328 16.0469L14.3674 16.0522L14.402 16.0573L14.4366 16.0622L14.4712 16.0671L14.5058 16.0717L14.5404 16.0763L14.575 16.0807L14.6096 16.0849L14.6443 16.0892L14.6789 16.0932L14.7135 16.0971L14.7481 16.101L14.7827 16.1046L14.8173 16.1081L14.8519 16.1116L14.8865 16.1149L14.9211 16.1181L14.9557 16.1212L14.9903 16.1241L15.0249 16.1271L15.0595 16.1297L15.0941 16.1324L15.1288 16.135L15.1634 16.1374L15.198 16.1397L15.2326 16.142L15.2672 16.144L15.3018 16.146L15.3364 16.148L15.371 16.1497L15.4056 16.1515L15.4402 16.1532L15.4748 16.1546L15.5094 16.156L15.5441 16.1574L15.5787 16.1586L15.6133 16.1597L15.6479 16.1608L15.6825 16.1617L15.7171 16.1626L15.7517 16.1634L15.7863 16.164L15.8209 16.1646L15.8555 16.1652L15.8901 16.1656L15.9247 16.1659L15.9593 16.1662L15.9939 16.1664L16.0285 16.1664L16.0631 16.1665L16.0978 16.1664L16.1324 16.1662L16.167 16.166L16.2016 16.1657L16.2362 16.1652L16.2708 16.1648L16.3054 16.1643L16.34 16.1636L16.3746 16.1629L16.4092 16.1622L16.4439 16.1613L16.4784 16.1603L16.5131 16.1593L16.5477 16.1583L16.5823 16.1571L16.6169 16.1559L16.6515 16.1547L16.6861 16.1533L16.7207 16.1518L16.7553 16.1504L16.7722 16.1496L16.7899 16.1488L16.8245 16.1471L16.8591 16.1453L16.8937 16.1434L16.9283 16.1413L16.9629 16.1391L16.9976 16.1368L17.0322 16.1344L17.0668 16.1319L17.1014 16.1293L17.136 16.1265L17.1706 16.1237L17.2052 16.1207L17.2398 16.1176L17.2744 16.1145L17.309 16.1112L17.3436 16.1079L17.3782 16.1044L17.4129 16.1009L17.4475 16.0972L17.4821 16.0935L17.5167 16.0896L17.5513 16.0857L17.5859 16.0817L17.6205 16.0776L17.6551 16.0734L17.6897 16.0692L17.7243 16.0648L17.7589 16.0604L17.7935 16.0559L17.8281 16.0513L17.8627 16.0466L17.8974 16.0418L17.9319 16.037L17.9666 16.0321L18.0012 16.0271L18.0358 16.022L18.0704 16.0168L18.105 16.0116L18.1396 16.0063L18.1742 16.0009L18.2088 15.9955L18.2434 15.9899L18.278 15.9844L18.3126 15.9787L18.3472 15.9729L18.3818 15.9671L18.4165 15.9613L18.4511 15.9553L18.4857 15.9493L18.5203 15.9432L18.5549 15.937L18.5895 15.9308L18.6241 15.9245L18.6587 15.9182L18.6933 15.9117L18.7279 15.9052L18.7625 15.8986L18.7971 15.892L18.8317 15.8853L18.8664 15.8785L18.901 15.8717L18.9356 15.8648L18.9702 15.8578L19.0048 15.8508L19.0394 15.8437L19.074 15.8364L19.1086 15.8292L19.1432 15.8219L19.1778 15.8145L19.2124 15.807L19.247 15.7995L19.2816 15.7919L19.3162 15.7841L19.3509 15.7764L19.3854 15.7685L19.4201 15.7606L19.4547 15.7525L19.4893 15.7443L19.5239 15.7361L19.5585 15.7277L19.5929 15.7192V14.1939L19.5585 14.2111L19.5239 14.2283L19.4893 14.2452L19.4547 14.2621L19.4201 14.2788L19.3854 14.2954L19.3509 14.3117L19.3162 14.3279L19.2816 14.3439L19.247 14.3598L19.2124 14.3754L19.1778 14.3909L19.1432 14.4062L19.1086 14.4213L19.074 14.4363L19.0394 14.4511L19.0048 14.4657L18.9702 14.4801L18.9356 14.4943L18.901 14.5083L18.8664 14.5222L18.8317 14.5358L18.7971 14.5492L18.7625 14.5625L18.7279 14.5756L18.6933 14.5884L18.6587 14.6011L18.6241 14.6136L18.5895 14.6259L18.5549 14.6379L18.5203 14.6498L18.4857 14.6615L18.4511 14.673L18.4165 14.6843L18.3818 14.6954L18.3472 14.7063L18.3126 14.717L18.278 14.7275L18.2434 14.7378L18.2088 14.7479L18.1742 14.7578L18.1396 14.7675L18.105 14.777L18.0704 14.7863L18.0358 14.7954L18.0012 14.8043L17.9666 14.813L17.9319 14.8215L17.8974 14.8299L17.8627 14.838L17.8281 14.846L17.7935 14.8537L17.7589 14.8613L17.7243 14.8686L17.6897 14.8758L17.6551 14.8827L17.6205 14.8895L17.5859 14.8961L17.5513 14.9025L17.5167 14.9087L17.4821 14.9147L17.4475 14.9205L17.4129 14.9261L17.3782 14.9316L17.3436 14.9368L17.309 14.9418L17.2744 14.9467L17.2398 14.9514L17.2052 14.9559L17.1706 14.9602L17.136 14.9644L17.1014 14.9683L17.0668 14.972L17.0322 14.9756L16.9976 14.979L16.9629 14.9822L16.9283 14.9853L16.8937 14.9881L16.8727 14.9898L16.8591 14.9907L16.8245 14.993L16.7899 14.9953L16.7553 14.9972L16.7207 14.999L16.6861 15.0006L16.6515 15.0017L16.6169 15.0028L16.5823 15.0036L16.5477 15.0041L16.5131 15.0045C16.5015 15.0046 16.49 15.0045 16.4784 15.0044L16.4439 15.0043L16.4092 15.0038L16.3746 15.003L16.34 15.0021C16.3284 15.0018 16.3169 15.0012 16.3054 15.0007C16.2939 15.0003 16.2823 14.9999 16.2708 14.9993L16.2362 14.9974L16.2016 14.9953L16.167 14.9929L16.1324 14.9902C16.1208 14.9892 16.1092 14.9884 16.0978 14.9873C16.0862 14.9863 16.0747 14.985 16.0631 14.9838L16.0285 14.9803L15.9939 14.9763L15.9593 14.9721L15.9247 14.9675L15.8901 14.9626C15.8786 14.9609 15.867 14.9592 15.8555 14.9574C15.8439 14.9556 15.8324 14.9536 15.8209 14.9517C15.8094 14.9497 15.7977 14.948 15.7863 14.9459C15.7747 14.9438 15.7632 14.9415 15.7517 14.9394C15.7402 14.9372 15.7285 14.9352 15.7171 14.9329C15.7055 14.9306 15.694 14.928 15.6825 14.9256C15.6709 14.9232 15.6593 14.9209 15.6479 14.9183C15.6363 14.9158 15.6248 14.913 15.6133 14.9103L15.5787 14.9022C15.567 14.8993 15.5556 14.8963 15.5441 14.8934C15.5325 14.8904 15.5209 14.8875 15.5094 14.8844C15.4978 14.8813 15.4863 14.878 15.4748 14.8748C15.4633 14.8715 15.4517 14.8683 15.4402 14.8649C15.4286 14.8614 15.4171 14.8579 15.4056 14.8543C15.394 14.8508 15.3825 14.8472 15.371 14.8435C15.3594 14.8398 15.3479 14.8359 15.3364 14.832C15.3249 14.8281 15.3132 14.8242 15.3018 14.8202C15.2902 14.8162 15.2787 14.8119 15.2672 14.8077C15.2556 14.8035 15.244 14.7993 15.2326 14.7949C15.221 14.7905 15.2095 14.7859 15.198 14.7813C15.1864 14.7767 15.1748 14.7722 15.1634 14.7675C15.1517 14.7626 15.1403 14.7576 15.1288 14.7526C15.1172 14.7476 15.1056 14.7427 15.0941 14.7376C15.0825 14.7324 15.071 14.7269 15.0595 14.7216C15.048 14.7161 15.0364 14.7107 15.0249 14.7052C15.0133 14.6995 15.0018 14.6938 14.9903 14.688C14.9787 14.6821 14.9672 14.6761 14.9557 14.6701C14.9441 14.664 14.9325 14.658 14.9211 14.6517C14.9094 14.6454 14.898 14.6388 14.8865 14.6322C14.8749 14.6256 14.8633 14.6191 14.8519 14.6123C14.8403 14.6054 14.8288 14.5983 14.8173 14.5913C14.8057 14.5842 14.7942 14.5768 14.7827 14.5695C14.7711 14.5621 14.7595 14.5547 14.7481 14.5471C14.7364 14.5393 14.725 14.5313 14.7135 14.5233C14.7018 14.5152 14.6903 14.507 14.6789 14.4987C14.6673 14.4903 14.6556 14.482 14.6443 14.4734C14.6326 14.4645 14.6211 14.4555 14.6096 14.4465C14.598 14.4373 14.5865 14.4281 14.575 14.4187C14.5634 14.4091 14.5518 14.3997 14.5404 14.3899C14.5287 14.3798 14.5173 14.3696 14.5058 14.3593C14.4941 14.3489 14.4826 14.3382 14.4712 14.3275C14.4596 14.3166 14.448 14.3056 14.4366 14.2944C14.425 14.283 14.4133 14.2716 14.402 14.2599C14.3903 14.2478 14.3788 14.2355 14.3674 14.2232C14.3557 14.2105 14.3442 14.1977 14.3328 14.1847C14.3211 14.1714 14.3095 14.1579 14.2982 14.1443C14.2865 14.1303 14.2749 14.1161 14.2636 14.1018C14.2519 14.0869 14.2403 14.0719 14.229 14.0568C14.2172 14.0411 14.2057 14.0252 14.1944 14.0092C14.1826 13.9925 14.171 13.9756 14.1597 13.9585C14.148 13.9406 14.1364 13.9226 14.1252 13.9043C14.1133 13.8852 14.1018 13.8658 14.0905 13.8462C14.0787 13.8255 14.0672 13.8046 14.0559 13.7835C14.044 13.761 14.0325 13.7383 14.0213 13.7154C14.0094 13.6909 13.9978 13.6661 13.9867 13.641C13.9748 13.6141 13.9631 13.5868 13.9521 13.5591C13.9399 13.5285 13.9285 13.4973 13.9175 13.4658C13.9053 13.4309 13.8937 13.3955 13.8829 13.3595C13.8704 13.3178 13.8588 13.2754 13.8483 13.2322C13.8352 13.1785 13.8237 13.1237 13.8137 13.0678C13.7988 12.9851 13.7872 12.9 13.7791 12.8126C13.7698 12.7116 13.765 12.6076 13.765 12.5007C13.765 12.3936 13.7698 12.2896 13.7791 12.1885C13.7872 12.1011 13.7988 12.016 13.8137 11.9331C13.8237 11.8773 13.8352 11.8224 13.8483 11.7687C13.8588 11.7255 13.8704 11.6831 13.8829 11.6413C13.8937 11.6053 13.9053 11.5699 13.9175 11.5349C13.9285 11.5034 13.9399 11.4722 13.9521 11.4416C13.9631 11.4139 13.9748 11.3866 13.9867 11.3596C13.9978 11.3345 14.0094 11.3098 14.0213 11.2853C14.0325 11.2623 14.044 11.2396 14.0559 11.2171C14.0672 11.196 14.0787 11.1751 14.0905 11.1544C14.1018 11.1348 14.1133 11.1154 14.1252 11.0962C14.1364 11.0779 14.148 11.0599 14.1597 11.042C14.171 11.0249 14.1826 11.008 14.1944 10.9913C14.2057 10.9752 14.2172 10.9594 14.229 10.9437C14.2403 10.9285 14.2519 10.9135 14.2636 10.8987C14.2749 10.8844 14.2865 10.8702 14.2982 10.8562C14.3095 10.8425 14.3211 10.8291 14.3328 10.8157C14.3442 10.8028 14.3557 10.7899 14.3674 10.7772C14.3788 10.7649 14.3903 10.7526 14.402 10.7405C14.4133 10.7288 14.425 10.7174 14.4366 10.7059C14.448 10.6948 14.4596 10.6838 14.4712 10.6728C14.4826 10.6621 14.4941 10.6515 14.5058 10.641C14.5173 10.6307 14.5287 10.6205 14.5404 10.6104C14.5518 10.6007 14.5634 10.5912 14.575 10.5816C14.5865 10.5723 14.598 10.563 14.6096 10.5538C14.6211 10.5448 14.6326 10.5357 14.6443 10.5269C14.6556 10.5183 14.6673 10.5099 14.6789 10.5015C14.6903 10.4932 14.7018 10.4851 14.7135 10.477C14.725 10.469 14.7364 10.4609 14.7481 10.4531C14.7595 10.4455 14.7711 10.4381 14.7827 10.4307C14.7942 10.4234 14.8057 10.4161 14.8173 10.4089C14.8288 10.4019 14.8403 10.3949 14.8519 10.388C14.8633 10.3812 14.8749 10.3746 14.8865 10.368C14.898 10.3614 14.9094 10.3549 14.9211 10.3485C14.9325 10.3422 14.9441 10.3362 14.9557 10.3301C14.9672 10.3241 14.9787 10.3181 14.9903 10.3122C15.0018 10.3064 15.0133 10.3007 15.0249 10.295C15.0364 10.2895 15.048 10.284 15.0595 10.2786C15.071 10.2732 15.0825 10.2678 15.0941 10.2626C15.1056 10.2575 15.1172 10.2525 15.1288 10.2475C15.1403 10.2425 15.1517 10.2375 15.1634 10.2327C15.1748 10.228 15.1864 10.2235 15.198 10.2189C15.2095 10.2143 15.221 10.2097 15.2326 10.2052C15.244 10.2009 15.2556 10.1967 15.2672 10.1924C15.2787 10.1882 15.2902 10.184 15.3018 10.1799C15.3132 10.1759 15.3249 10.172 15.3364 10.1681C15.3479 10.1642 15.3594 10.1604 15.371 10.1566C15.3825 10.1529 15.394 10.1493 15.4056 10.1458C15.4171 10.1422 15.4286 10.1387 15.4402 10.1353L15.4748 10.1253C15.4863 10.1221 15.4978 10.1188 15.5094 10.1157C15.5209 10.1126 15.5325 10.1097 15.5441 10.1067C15.5556 10.1038 15.567 10.1008 15.5787 10.0979L15.6133 10.0898C15.6248 10.0871 15.6363 10.0844 15.6479 10.0818C15.6593 10.0793 15.6709 10.0769 15.6825 10.0745C15.694 10.072 15.7055 10.0695 15.7171 10.0672C15.7285 10.0649 15.7402 10.0629 15.7517 10.0607C15.7632 10.0585 15.7747 10.0563 15.7863 10.0542C15.7977 10.0521 15.8094 10.0504 15.8209 10.0484C15.8324 10.0465 15.8439 10.0445 15.8555 10.0427L15.8901 10.0375L15.9247 10.0326L15.9593 10.028L15.9939 10.0238L16.0285 10.0197L16.0631 10.0162C16.0747 10.0151 16.0862 10.0138 16.0978 10.0127C16.1092 10.0117 16.1208 10.0109 16.1324 10.0099L16.167 10.0071L16.2016 10.0047L16.2362 10.0027L16.2708 10.0007C16.2823 10.0002 16.2939 9.99979 16.3054 9.99932C16.3169 9.99886 16.3284 9.99828 16.34 9.99791L16.3746 9.99702L16.4092 9.99627L16.4439 9.99575L16.4784 9.99563C16.49 9.9956 16.5015 9.99546 16.5131 9.99552L16.5477 9.99595L16.5823 9.99647L16.6169 9.99722L16.6515 9.99834L16.6861 9.99947L16.7207 10.0011L16.7553 10.0028L16.7899 10.0047L16.8245 10.007L16.8591 10.0094L16.8727 10.0103L16.8937 10.012L16.9283 10.0147L16.9629 10.0177L16.9976 10.0209L17.0322 10.0242L17.0668 10.0278L17.1014 10.0315L17.136 10.0354L17.1706 10.0394L17.2052 10.0437L17.2398 10.0481L17.2744 10.0527L17.309 10.0576L17.3436 10.0625L17.3782 10.0677L17.4129 10.0731L17.4475 10.0786L17.4821 10.0844L17.5167 10.0903L17.5513 10.0965L17.5859 10.1028L17.6205 10.1093L17.6551 10.116L17.6897 10.1229L17.7243 10.13L17.7589 10.1373L17.7935 10.1448L17.8281 10.1525L17.8627 10.1603L17.8974 10.1684L17.9319 10.1767L17.9666 10.1852L18.0012 10.1939L18.0358 10.2027L18.0704 10.2118L18.105 10.2211L18.1396 10.2306L18.1742 10.2403L18.2088 10.2501L18.2434 10.2602L18.278 10.2705L18.3126 10.281L18.3472 10.2917L18.3818 10.3026L18.4165 10.3137L18.4511 10.325L18.4857 10.3365L18.5203 10.3482L18.5549 10.3601L18.5895 10.3722L18.6241 10.3845L18.6587 10.397L18.6933 10.4097L18.7279 10.4227L18.7625 10.4358L18.7971 10.4491L18.8317 10.4626L18.8664 10.4763L18.901 10.4902L18.9356 10.5043L18.9702 10.5186L19.0048 10.5331L19.0394 10.5478L19.074 10.5627L19.1086 10.5778L19.1432 10.593L19.1778 10.6084L19.2124 10.6241L19.247 10.6399L19.2816 10.6558L19.3162 10.672L19.3509 10.6884L19.3854 10.7049L19.4201 10.7215L19.4547 10.7384L19.4893 10.7554L19.5239 10.7726L19.5585 10.7899L19.5929 10.8073V9.28087L19.5585 9.27233L19.5239 9.26397L19.4893 9.25572L19.4547 9.24756L19.4201 9.23951L19.3854 9.23158L19.3509 9.2237L19.3162 9.21591L19.2816 9.20824L19.247 9.20059L19.2124 9.19307L19.1778 9.18562L19.1432 9.17818L19.1086 9.17088L19.074 9.16364L19.0394 9.15646L19.0048 9.14934L18.9702 9.1423L18.9356 9.13532L18.901 9.12842L18.8664 9.12162L18.8317 9.11481L18.7971 9.10812L18.7625 9.10148L18.7279 9.09493L18.6933 9.08844L18.6587 9.08201L18.6241 9.07567L18.5895 9.06938L18.5549 9.06315L18.5203 9.057L18.4857 9.05092L18.4511 9.04489L18.4165 9.03897L18.3818 9.03309L18.3472 9.02729L18.3126 9.02155L18.278 9.0159L18.2434 9.01033L18.2088 9.00479L18.1742 8.99937L18.1396 8.99398L18.105 8.9887L18.0704 8.98348L18.0358 8.97831L18.0012 8.97326L17.9666 8.96827L17.9319 8.96337L17.8974 8.95855L17.8627 8.95379L17.8281 8.94912L17.7935 8.94451L17.7589 8.94003L17.7243 8.93559L17.6897 8.93124L17.6551 8.92697L17.6205 8.92281L17.5859 8.91875L17.5513 8.91474L17.5167 8.91084L17.4821 8.90701L17.4475 8.90331L17.4129 8.89965L17.3782 8.89616L17.3436 8.8927L17.309 8.88935L17.2744 8.88609L17.2398 8.88298L17.2052 8.87992L17.1706 8.87698L17.136 8.87415L17.1014 8.87141L17.0668 8.86884L17.0322 8.86628L16.9976 8.86394L16.9629 8.8616L16.9283 8.8595L16.8937 8.85742L16.8591 8.85552L16.8245 8.8537L16.7899 8.85203L16.7722 8.85119L16.7553 8.85047L16.7207 8.84903L16.6861 8.84759L16.6515 8.84614L16.6169 8.84493L16.5823 8.84375L16.5477 8.84254L16.5131 8.8415L16.4784 8.84052L16.4439 8.83957L16.4092 8.83867L16.3746 8.83795L16.34 8.83726L16.3054 8.83654L16.2708 8.83608L16.2362 8.83561L16.2016 8.83515L16.167 8.83486L16.1324 8.83469L16.0978 8.83449L16.0631 8.8344L16.0285 8.83446L15.9939 8.83452L15.9593 8.83463L15.9247 8.83495L15.8901 8.8353L15.8555 8.83564L15.8209 8.83625L15.7863 8.83683L15.7517 8.83743L15.7171 8.8383L15.6825 8.83916L15.6479 8.84003L15.6133 8.84115L15.5787 8.84231L15.5441 8.84346L15.5094 8.84487L15.4748 8.84632L15.4402 8.84773L15.4056 8.84943L15.371 8.85116L15.3364 8.85286L15.3018 8.85485L15.2672 8.85687L15.2326 8.85889L15.198 8.8612L15.1634 8.86354L15.1288 8.86587L15.0941 8.86853L15.0595 8.87115L15.0249 8.87386L14.9903 8.87681L14.9557 8.87972L14.9211 8.88281L14.8865 8.88607L14.8519 8.88932L14.8173 8.89279L14.7827 8.89639L14.7481 8.89997L14.7135 8.90386L14.6789 8.90776L14.6443 8.91174L14.6096 8.91601L14.575 8.92025L14.5404 8.92472L14.5058 8.9293L14.4712 8.93389L14.4366 8.93879L14.402 8.94373L14.3674 8.9488L14.3328 8.95411L14.2982 8.95939L14.2636 8.96499L14.229 8.97067L14.1944 8.97647L14.1597 8.98247L14.1252 8.9885L14.0905 8.99484L14.0559 9.00127L14.0213 9.00785L13.9867 9.01463L13.9521 9.02144L13.9175 9.02862L13.8829 9.0358L13.8483 9.04324L13.8137 9.05083L13.7791 9.05856L13.7445 9.06655L13.7098 9.07457L13.6753 9.08299L13.6406 9.09142L13.606 9.10016L13.5714 9.10901L13.5368 9.11813L13.5022 9.12741L13.4676 9.13688L13.433 9.1466L13.3984 9.15646L13.3638 9.16664L13.3292 9.17688L13.2946 9.18753L13.26 9.19823L13.2254 9.20936C13.2138 9.21309 13.2022 9.21672 13.1907 9.2205L13.1561 9.23212C13.1446 9.23599 13.133 9.2398 13.1215 9.24375L13.0869 9.25586L13.0523 9.26798C13.0407 9.27213 13.0292 9.27643 13.0177 9.28064C13.0062 9.28485 12.9945 9.28901 12.9831 9.2933L12.9485 9.30649C12.9369 9.3109 12.9253 9.31523 12.9139 9.3197L12.8793 9.33343L12.8447 9.34727L12.8101 9.36155L12.7755 9.37603L12.7408 9.39086L12.7062 9.40603L12.6717 9.42143L12.6371 9.43733L12.6025 9.45337C12.5908 9.45885 12.5794 9.46444 12.5678 9.46998L12.5332 9.4868L12.4986 9.50408L12.464 9.52173C12.4524 9.5277 12.4408 9.53361 12.4294 9.53964C12.4178 9.54576 12.4063 9.55199 12.3948 9.55819L12.3602 9.577L12.3256 9.59624C12.314 9.60279 12.3025 9.60939 12.291 9.61603C12.2794 9.62269 12.2678 9.62932 12.2564 9.63607C12.2448 9.64291 12.2333 9.64983 12.2218 9.65676C12.2101 9.66376 12.1986 9.67083 12.1872 9.67793C12.1756 9.68508 12.164 9.69224 12.1526 9.69945C12.1409 9.7068 12.1294 9.71424 12.1179 9.72166L12.0833 9.74436C12.0717 9.75206 12.0602 9.75971 12.0487 9.76749L12.0141 9.79132C12.0025 9.79943 11.991 9.80759 11.9795 9.81575C11.9679 9.82403 11.9563 9.83237 11.9449 9.84076C11.9333 9.84924 11.9217 9.85769 11.9103 9.86626C11.8987 9.87503 11.8872 9.88385 11.8757 9.89271C11.8641 9.90168 11.8525 9.91071 11.8411 9.91977C11.8295 9.92894 11.8179 9.93817 11.8065 9.94746V9.94743Z" fill="url(#paint2_linear)"/>
<defs>
<linearGradient id="paint0_linear" x1="21.6685" y1="12.5001" x2="30.5284" y2="12.5001" gradientUnits="userSpaceOnUse">
<stop stop-color="#007B40"/>
<stop offset="1" stop-color="#55B330"/>
</linearGradient>
<linearGradient id="paint1_linear" x1="1.79553" y1="12.5001" x2="10.6544" y2="12.5001" gradientUnits="userSpaceOnUse">
<stop stop-color="#1D2970"/>
<stop offset="1" stop-color="#006DBA"/>
</linearGradient>
<linearGradient id="paint2_linear" x1="11.7322" y1="12.5001" x2="20.5914" y2="12.5001" gradientUnits="userSpaceOnUse">
<stop stop-color="#6E2B2F"/>
<stop offset="1" stop-color="#E30138"/>
</linearGradient>
</defs>
</svg>
