<svg width="325" height="86" viewBox="0 0 325 86" fill="none" xmlns="http://www.w3.org/2000/svg">
<path fill-rule="evenodd" clip-rule="evenodd" d="M39.8193 0.65979H14.6189C12.8944 0.65979 11.4278 1.8965 11.1588 3.57696L0.966641 67.3655C0.763976 68.624 1.75151 69.7589 3.04488 69.7589H15.0758C16.8003 69.7589 18.2668 68.5221 18.5358 66.8381L21.2847 49.6333C21.55 47.9492 23.0202 46.7125 24.7411 46.7125H32.7187C49.3188 46.7125 58.8993 38.783 61.4013 23.0696C62.5288 16.195 61.4492 10.7935 58.1881 7.01063C54.6065 2.85676 48.2539 0.65979 39.8193 0.65979ZM42.7266 23.9571C41.3485 32.8832 34.4395 32.8832 27.7589 32.8832H23.9562L26.624 16.2132C26.7824 15.2056 27.6668 14.4636 28.6985 14.4636H30.4415C34.9922 14.4636 39.285 14.4636 41.5033 17.0243C42.8261 18.552 43.2315 20.8217 42.7266 23.9571Z" fill="#253B80"/>
<path fill-rule="evenodd" clip-rule="evenodd" d="M115.15 23.6713H103.082C102.054 23.6713 101.166 24.4134 101.007 25.4209L100.473 28.7527L99.6292 27.5451C97.0167 23.8023 91.191 22.551 85.3764 22.551C72.041 22.551 60.6513 32.521 58.433 46.5067C57.2797 53.4832 58.9194 60.1541 62.9285 64.8063C66.6059 69.0839 71.8678 70.8662 78.1283 70.8662C88.8733 70.8662 94.8316 64.0461 94.8316 64.0461L94.2936 67.3561C94.091 68.6219 95.0785 69.7568 96.3645 69.7568H107.235C108.963 69.7568 110.422 68.5201 110.695 66.836L117.217 26.0647C117.423 24.8098 116.439 23.6713 115.15 23.6713ZM98.3285 46.8559C97.1641 53.6614 91.6922 58.23 84.7131 58.23C81.2089 58.23 78.4084 57.1206 76.6102 55.0182C74.8268 52.9303 74.1487 49.9586 74.7162 46.6486C75.8032 39.9013 81.3673 35.1836 88.2395 35.1836C91.6663 35.1836 94.4521 36.3075 96.2871 38.4281C98.1258 40.5705 98.8554 43.5605 98.3285 46.8559Z" fill="#253B80"/>
<path fill-rule="evenodd" clip-rule="evenodd" d="M179.419 23.6715H167.293C166.136 23.6715 165.049 24.2389 164.393 25.1883L147.667 49.5077L140.578 26.1376C140.132 24.6754 138.765 23.6715 137.217 23.6715H125.301C123.853 23.6715 122.847 25.0683 123.307 26.4141L136.665 65.1084L124.107 82.6078C123.119 83.9863 124.114 85.8814 125.82 85.8814H137.932C139.082 85.8814 140.158 85.3285 140.81 84.3974L181.144 26.927C182.109 25.552 181.118 23.6715 179.419 23.6715Z" fill="#253B80"/>
<path fill-rule="evenodd" clip-rule="evenodd" d="M219.57 0.661499H194.365C192.645 0.661499 191.178 1.8982 190.909 3.57867L180.717 67.3672C180.514 68.6257 181.502 69.7606 182.788 69.7606H195.721C196.923 69.7606 197.951 68.8949 198.139 67.7164L201.031 49.635C201.297 47.9509 202.767 46.7142 204.488 46.7142H212.462C229.065 46.7142 238.642 38.7847 241.148 23.0713C242.279 16.1967 241.192 10.7952 237.931 7.01234C234.353 2.85847 228.004 0.661499 219.57 0.661499ZM222.477 23.9588C221.102 32.8849 214.193 32.8849 207.509 32.8849H203.71L206.382 16.2149C206.54 15.2073 207.417 14.4653 208.452 14.4653H210.195C214.742 14.4653 219.039 14.4653 221.257 17.026C222.58 18.5537 222.982 20.8234 222.477 23.9588Z" fill="#179BD7"/>
<path fill-rule="evenodd" clip-rule="evenodd" d="M294.893 23.6713H282.833C281.798 23.6713 280.917 24.4134 280.762 25.4209L280.228 28.7527L279.38 27.5451C276.768 23.8023 270.946 22.551 265.131 22.551C251.796 22.551 240.41 32.521 238.192 46.5067C237.042 53.4832 238.674 60.1541 242.683 64.8063C246.368 69.0839 251.623 70.8662 257.883 70.8662C268.628 70.8662 274.586 64.0461 274.586 64.0461L274.048 67.3561C273.846 68.6219 274.833 69.7568 276.127 69.7568H286.993C288.714 69.7568 290.181 68.5201 290.45 66.836L296.975 26.0647C297.174 24.8098 296.187 23.6713 294.893 23.6713ZM278.072 46.8559C276.915 53.6614 271.436 58.23 264.457 58.23C260.96 58.23 258.152 57.1206 256.354 55.0182C254.571 52.9303 253.9 49.9586 254.46 46.6486C255.554 39.9013 261.111 35.1836 267.983 35.1836C271.41 35.1836 274.196 36.3075 276.031 38.4281C277.877 40.5705 278.607 43.5605 278.072 46.8559Z" fill="#179BD7"/>
<path fill-rule="evenodd" clip-rule="evenodd" d="M309.122 2.41154L298.779 67.3676C298.576 68.6262 299.564 69.761 300.85 69.761H311.248C312.976 69.761 314.443 68.5243 314.708 66.8402L324.908 3.05535C325.11 1.79682 324.123 0.658325 322.837 0.658325H311.193C310.165 0.661963 309.28 1.40398 309.122 2.41154Z" fill="#179BD7"/>
</svg>
