<svg xmlns="http://www.w3.org/2000/svg" viewBox="0 0 107.23 92.68"><title>Dinners Logomark</title><path d="M2,47.14A44.74,44.74,0,1,1,46.69,91.89,44.74,44.74,0,0,1,2,47.14Z" style="fill:#fff"/><path d="M56.47,21.16v50.2a26.87,26.87,0,0,0,0-50.2ZM20,46.26A27,27,0,0,0,37.22,71.35V21.17A27,27,0,0,0,20,46.26Zm36.51-25.1v50.2a26.87,26.87,0,0,0,0-50.2ZM20,46.26A27,27,0,0,0,37.22,71.35V21.17A27,27,0,0,0,20,46.26ZM58.77,0h-12C21.11,0,0,19.11,0,46.74,0,72,21.11,92.8,46.75,92.68h12c25.33,0,48.46-20.66,48.46-45.94C107.23,19.1,84.1,0,58.77,0ZM46.85,88.68A42.43,42.43,0,1,1,89.28,46.26,42.43,42.43,0,0,1,46.85,88.68Zm9.62-67.52v50.2a26.87,26.87,0,0,0,0-50.2ZM20,46.26A27,27,0,0,0,37.22,71.35V21.17A27,27,0,0,0,20,46.26Z" style="fill:#0069aa"/></svg>