<svg width="30" height="19" viewBox="0 0 30 19" fill="none" xmlns="http://www.w3.org/2000/svg">
<path d="M18.9031 1.95361H10.856V16.3213H18.9031V1.95361Z" fill="#F47D20"/>
<path fill-rule="evenodd" clip-rule="evenodd" d="M11.3669 9.13736C11.3669 6.2228 12.7405 3.62677 14.8795 1.95362C13.315 0.730227 11.3413 0 9.19594 0C4.11706 0 0 4.091 0 9.13736C0 14.184 4.11706 18.2747 9.19594 18.2747C11.3413 18.2747 13.315 17.5447 14.8795 16.3214C12.7405 14.6482 11.3669 12.0522 11.3669 9.13736Z" fill="#DE1F31"/>
<path fill-rule="evenodd" clip-rule="evenodd" d="M29.4719 14.7995V14.4449H29.3789L29.2716 14.6888L29.1641 14.4449H29.0711V14.7995H29.137V14.532L29.2374 14.7627H29.3056L29.4062 14.5314V14.7995H29.4719ZM28.8818 14.7995V14.5053H29.0011V14.4454H28.6971V14.5053H28.8164V14.7995H28.8818ZM29.759 9.13736C29.759 14.184 25.642 18.2747 20.5631 18.2747C18.4177 18.2747 16.4437 17.5447 14.8795 16.3214C17.0185 14.6482 18.3921 12.0522 18.3921 9.13736C18.3921 6.2228 17.0185 3.62677 14.8795 1.95362C16.4437 0.730227 18.4177 0 20.5631 0C25.642 0 29.759 4.091 29.759 9.13736Z" fill="#F3A837"/>
</svg>
